<?xml version="1.0" encoding="utf-8"?>
<!-- Generator: Adobe Illustrator 27.5.0, SVG Export Plug-In . SVG Version: 6.00 Build 0)  -->
<svg version="1.1" id="Capa_1" xmlns="http://www.w3.org/2000/svg" xmlns:xlink="http://www.w3.org/1999/xlink" x="0px" y="0px"
	 viewBox="0 0 2122 2122" style="enable-background:new 0 0 2122 2122;" xml:space="preserve">
<path style="fill:#7E9E45;" d="M1997.011,1053.669c-0.285-0.157-0.569-0.314-0.854-0.471c-0.917-0.504-1.835-1.008-2.753-1.512
	l-0.604-0.332c-2.317-1.27-4.64-2.535-6.965-3.794l-0.238-0.13c-105.345-57.072-218.307-104.209-337.213-115.204
	c-2.239-0.209-4.483-0.404-6.729-0.587c-1.773-0.136-3.532-0.282-5.291-0.399c-1.715-0.126-3.449-0.239-5.179-0.351
	c-51.98-3.152-105.345,2.266-156.385,16.02c-2.474,0.668-4.925,1.342-7.366,2.06c-3.47,0.994-6.926,2.028-10.371,3.101
	c-0.061,0.019-0.121,0.038-0.183,0.057c-1.055,0.329-2.107,0.661-3.158,0.996c-0.089,0.029-0.179,0.057-0.269,0.086
	c-1.018,0.326-2.033,0.655-3.049,0.987c-0.133,0.044-0.266,0.087-0.398,0.131c-0.988,0.325-1.975,0.652-2.96,0.983
	c-0.154,0.051-0.31,0.104-0.463,0.156c-0.972,0.327-1.941,0.657-2.911,0.991c-0.154,0.053-0.31,0.107-0.464,0.16
	c-0.966,0.334-1.931,0.67-2.896,1.01c-0.163,0.058-0.328,0.116-0.492,0.175c-0.966,0.342-1.931,0.686-2.894,1.034
	c-0.128,0.046-0.255,0.093-0.383,0.139c-1.002,0.363-2.005,0.729-3.005,1.099c-0.053,0.02-0.105,0.039-0.158,0.059
	c-6.385,2.365-12.714,4.869-18.98,7.51c-0.226,0.095-0.452,0.189-0.678,0.284c-0.759,0.321-1.516,0.647-2.273,0.973
	c-0.363,0.156-0.727,0.311-1.089,0.468c-0.649,0.28-1.295,0.565-1.943,0.848c-0.481,0.212-0.966,0.423-1.447,0.636
	c-0.592,0.261-1.18,0.525-1.768,0.789c-0.525,0.235-1.05,0.47-1.573,0.707c-0.545,0.246-1.088,0.494-1.632,0.742
	c-0.583,0.268-1.168,0.534-1.75,0.803c-0.481,0.222-0.96,0.445-1.439,0.67c-0.653,0.304-1.305,0.609-1.956,0.917
	c-0.413,0.195-0.825,0.391-1.238,0.587c-0.72,0.343-1.438,0.687-2.155,1.034c-0.356,0.171-0.709,0.342-1.063,0.514
	c-0.808,0.393-1.614,0.788-2.419,1.185c-0.243,0.12-0.485,0.239-0.728,0.359c-0.932,0.463-1.862,0.927-2.791,1.396
	c-0.13,0.065-0.26,0.131-0.39,0.196c-7.687,3.885-15.253,7.989-22.683,12.315l-0.015,0.015c-0.95,0.557-1.896,1.117-2.843,1.68
	c-0.31,0.185-0.621,0.369-0.931,0.554c-0.4,0.24-0.802,0.482-1.201,0.723c-5.464,3.285-10.852,6.69-16.153,10.218
	c-0.147,0.098-0.295,0.195-0.441,0.293c-0.562,0.374-1.12,0.75-1.678,1.126c-0.365,0.246-0.73,0.493-1.096,0.74
	c-0.479,0.326-0.958,0.651-1.437,0.979c-0.792,0.542-1.581,1.085-2.369,1.633c-0.246,0.171-0.492,0.344-0.738,0.517
	c-0.726,0.507-1.451,1.016-2.173,1.527c-0.252,0.178-0.502,0.357-0.753,0.536c-0.777,0.553-1.554,1.108-2.326,1.667
	c-0.134,0.097-0.268,0.193-0.402,0.29c-1.967,1.424-3.921,2.866-5.861,4.326c-0.01,0.008-0.021,0.016-0.031,0.024
	c-35.824,26.95-67.059,59.881-91.396,98.663c-14.957,9.855-29.486,20.364-43.496,31.546
	c18.627-76.872,23.753-156.569,12.314-233.762c-2.807-18.933-6.146-38.139-10.121-57.406c17.327-10.084,34.091-21.091,50.281-32.879
	c0.196-0.04,0.392-0.082,0.588-0.123c0.029-0.006,0.059-0.012,0.089-0.018c1.183-0.244,2.362-0.495,3.54-0.75
	c0.063-0.014,0.127-0.027,0.19-0.041c46.818-10.193,90.246-29.671,129.206-55.991l0.38-0.257c1.905-1.29,3.801-2.597,5.684-3.919
	c0.264-0.185,0.526-0.371,0.789-0.557c0.636-0.448,1.269-0.897,1.9-1.349c0.335-0.239,0.669-0.478,1.003-0.718
	c0.644-0.463,1.286-0.928,1.928-1.394c0.615-0.447,1.228-0.896,1.839-1.347c0.395-0.29,0.789-0.58,1.181-0.871
	c0.541-0.4,1.081-0.804,1.62-1.208c0.256-0.191,0.512-0.384,0.768-0.576c2.542-1.912,5.064-3.852,7.563-5.822
	c1.85-1.454,3.693-2.933,5.534-4.421l0.015-0.014c8.599-7.02,16.933-14.383,24.991-22.055c0.054-0.05,0.104-0.1,0.158-0.149
	c0.826-0.788,1.649-1.58,2.471-2.373c0.087-0.084,0.175-0.169,0.262-0.253c0.786-0.762,1.57-1.526,2.351-2.295
	c0.116-0.114,0.231-0.228,0.347-0.342c0.748-0.736,1.492-1.476,2.234-2.218c0.141-0.141,0.282-0.282,0.424-0.423
	c0.729-0.728,1.453-1.461,2.175-2.195c0.146-0.149,0.293-0.297,0.438-0.445c0.702-0.714,1.401-1.433,2.098-2.152
	c0.17-0.174,0.339-0.348,0.508-0.523c0.722-0.747,1.439-1.497,2.155-2.248c0.126-0.133,0.253-0.264,0.38-0.397
	c0.749-0.788,1.494-1.58,2.238-2.373c0.1-0.108,0.202-0.215,0.304-0.323c0.834-0.893,1.666-1.788,2.493-2.688
	c0.007-0.007,0.014-0.014,0.02-0.021c0.823-0.895,1.643-1.793,2.459-2.694c0.367-0.405,0.729-0.812,1.096-1.218
	c0.44-0.491,0.881-0.979,1.321-1.472c0.479-0.537,0.952-1.076,1.429-1.615c0.312-0.354,0.625-0.705,0.937-1.06
	c0.496-0.565,0.989-1.132,1.482-1.7c0.302-0.348,0.605-0.695,0.907-1.045c0.514-0.595,1.025-1.192,1.537-1.79
	c0.256-0.3,0.513-0.599,0.769-0.899c0.542-0.637,1.082-1.277,1.621-1.917c0.234-0.278,0.47-0.556,0.703-0.835
	c0.553-0.661,1.104-1.323,1.654-1.986c0.202-0.245,0.404-0.488,0.606-0.732c0.592-0.717,1.182-1.436,1.769-2.156
	c0.147-0.181,0.296-0.363,0.443-0.546c0.63-0.773,1.257-1.55,1.881-2.329c0.104-0.129,0.208-0.259,0.312-0.389
	c0.653-0.814,1.302-1.631,1.948-2.449c0.075-0.094,0.149-0.188,0.223-0.282c0.688-0.871,1.372-1.745,2.054-2.621
	c0.009-0.011,0.018-0.023,0.026-0.034c2.167-2.788,4.305-5.602,6.409-8.438l0,0c0.106-0.141,0.211-0.283,0.316-0.425
	c1.482-1.981,2.935-3.978,4.39-6.001c30.802-42.962,54.612-91.026,69.915-140.804c0.502-1.662,1.004-3.323,1.491-4.97
	c0.506-1.691,0.988-3.386,1.485-5.096c1.05-3.684,2.061-7.375,3.038-11.072c0.146-0.555,0.294-1.109,0.438-1.665
	c0.065-0.251,0.13-0.503,0.195-0.754c0.221-0.85,0.44-1.702,0.658-2.552l0.084-0.335c22.142-86.966,24.334-177.789,16.776-267.886
	c-0.004-0.035-0.007-0.072-0.01-0.107c-0.23-2.739-0.469-5.478-0.717-8.214c-0.002-0.028-0.004-0.056-0.007-0.083
	c-0.115-1.257-0.23-2.513-0.348-3.768c-0.017-0.182-0.033-0.363-0.051-0.545c-0.242-2.583-0.492-5.165-0.75-7.747
	c-0.026-0.262-0.053-0.523-0.078-0.785c-0.103-1.015-0.206-2.03-0.31-3.045c-0.033-0.316-0.064-0.631-0.098-0.946
	c-0.126-1.226-0.254-2.453-0.385-3.679c-0.025-0.249-0.054-0.497-0.079-0.745c-0.104-0.964-0.207-1.927-0.312-2.891
	c-0.046-0.424-0.091-0.847-0.138-1.271c-0.107-0.979-0.217-1.958-0.325-2.938c-0.028-0.255-0.058-0.51-0.085-0.765
	c-0.137-1.214-0.274-2.428-0.413-3.642c-0.044-0.374-0.087-0.747-0.129-1.121c-0.099-0.846-0.198-1.691-0.297-2.538
	c-0.052-0.449-0.104-0.898-0.158-1.346c-0.102-0.869-0.206-1.739-0.311-2.608c-0.075-0.633-0.152-1.267-0.229-1.9
	c-0.102-0.848-0.205-1.695-0.309-2.543c-0.069-0.564-0.139-1.128-0.21-1.692c-0.084-0.68-0.169-1.361-0.254-2.042
	c-0.067-0.535-0.134-1.071-0.201-1.607c-0.109-0.859-0.218-1.718-0.329-2.576c-0.096-0.755-0.193-1.511-0.291-2.266
	c-0.087-0.671-0.174-1.341-0.262-2.012c-0.078-0.603-0.158-1.208-0.237-1.812c-0.083-0.633-0.167-1.265-0.251-1.897
	c-0.076-0.566-0.151-1.131-0.227-1.697c-0.147-1.102-0.297-2.205-0.446-3.308c-0.062-0.451-0.124-0.902-0.185-1.353l-0.307-2.23
	c-0.077-0.555-0.154-1.11-0.23-1.665c-0.111-0.791-0.222-1.582-0.333-2.373c-0.052-0.378-0.106-0.756-0.159-1.134
	c-0.161-1.136-0.322-2.271-0.483-3.406c-0.066-0.455-0.13-0.909-0.196-1.364c-0.118-0.82-0.236-1.641-0.355-2.46
	c-0.065-0.444-0.13-0.888-0.195-1.332c-0.172-1.18-0.345-2.358-0.519-3.537c-0.2,0.45-0.401,0.898-0.603,1.346
	c-0.107,0.237-0.216,0.475-0.323,0.712c-0.122,0.269-0.245,0.537-0.369,0.806c-0.147,0.319-0.295,0.639-0.443,0.959
	c-0.069,0.148-0.138,0.296-0.207,0.444c-1.424,3.038-2.911,6.037-4.442,8.985c-2.188,4.2-4.477,8.293-6.918,12.317
	c-29.813,49.783-76.429,88.302-120.293,128.77c-3.161,2.884-6.279,5.788-9.393,8.711c-26.441,24.867-51.338,50.811-70.314,80.843
	c-2.426,3.825-4.735,7.703-6.947,11.689c-1.974,3.517-3.854,7.093-5.656,10.743c-20.994,42.601-28.024,90.451-36.454,137.179
	c-3.449,19.094-7.181,38.153-11.195,57.135c-0.658,3.128-1.311,6.256-2.008,9.359c-16.039,74.461-36.36,147.971-60.833,220.053
	c-10.646,7.693-21.549,15.05-32.687,22.037c-4.132,2.59-8.309,5.13-12.513,7.614c-13.796-63.124-34.589-126.49-65.901-182.682
	c-3.696-8.42-7.587-16.752-11.662-24.995c-1.326-41.968-10.146-82.617-24.969-120.958c-0.004-0.011-0.009-0.022-0.013-0.032
	c-0.41-1.063-0.825-2.123-1.245-3.181c-0.043-0.107-0.085-0.214-0.127-0.321c-0.182-0.455-0.363-0.91-0.546-1.365
	c-0.111-0.273-0.221-0.548-0.333-0.822c-0.208-0.517-0.417-1.032-0.628-1.548c-0.216-0.526-0.432-1.052-0.649-1.577
	c-0.113-0.271-0.227-0.542-0.34-0.814c-0.222-0.535-0.447-1.069-0.672-1.602c-0.083-0.197-0.165-0.393-0.249-0.59
	c-0.314-0.741-0.631-1.481-0.948-2.221c-0.043-0.1-0.087-0.2-0.131-0.3c-0.325-0.753-0.652-1.505-0.983-2.257l-0.025-0.058
	c-4.957-11.282-10.434-22.344-16.39-33.161c-0.07-0.128-0.141-0.256-0.211-0.384c-0.082-0.15-0.166-0.3-0.249-0.45
	c-0.592-1.076-1.188-2.151-1.79-3.224l-0.01-0.019c-4.852-8.581-10.007-17-15.438-25.247l-0.183-0.276
	c-0.554-0.841-1.112-1.681-1.672-2.519c-0.205-0.305-0.408-0.608-0.612-0.912c-0.412-0.612-0.825-1.223-1.24-1.833
	c-0.303-0.444-0.606-0.889-0.91-1.331c-0.262-0.384-0.524-0.767-0.788-1.149c-0.45-0.652-0.903-1.303-1.355-1.953
	c-0.187-0.267-0.372-0.533-0.558-0.798c-0.514-0.734-1.031-1.466-1.549-2.196c-0.167-0.235-0.334-0.47-0.501-0.704
	c-0.542-0.761-1.087-1.52-1.633-2.277c-0.137-0.19-0.274-0.38-0.412-0.569c-0.576-0.795-1.156-1.59-1.737-2.381
	c-0.104-0.14-0.206-0.28-0.31-0.42c-0.625-0.85-1.253-1.697-1.884-2.543c-0.039-0.052-0.078-0.103-0.116-0.154
	c-11.253-15.054-23.456-29.442-36.466-43.074v-0.001c-0.157-0.167-0.314-0.331-0.473-0.497c-1.665-1.757-3.354-3.487-5.067-5.228
	c-37.125-37.627-80.473-69.227-126.938-92.73c-0.914-0.46-1.829-0.916-2.742-1.37c-0.635-0.316-1.273-0.632-1.906-0.944
	c-0.88-0.438-1.766-0.868-2.653-1.298c-0.057-0.027-0.115-0.056-0.171-0.083c-0.647-0.314-1.295-0.627-1.945-0.944
	c-2.085-1.001-4.175-1.99-6.271-2.966c-84.414-39.361-176.791-57.921-270.176-66.015c-0.121-0.011-0.241-0.021-0.361-0.032
	c-2.691-0.232-5.383-0.457-8.076-0.672l-0.146-0.012c-1.241-0.099-2.481-0.196-3.722-0.291c-0.192-0.015-0.386-0.03-0.578-0.044
	c-2.572-0.197-5.144-0.386-7.717-0.568c-0.287-0.02-0.576-0.041-0.864-0.06c-1.058-0.074-2.118-0.148-3.176-0.22
	c-0.217-0.015-0.434-0.029-0.651-0.044c-1.25-0.084-2.503-0.167-3.752-0.247c-0.295-0.019-0.59-0.038-0.884-0.056
	c-0.978-0.063-1.956-0.124-2.934-0.185c-0.378-0.023-0.756-0.046-1.135-0.07c-0.904-0.055-1.809-0.109-2.714-0.162
	c-0.378-0.023-0.756-0.046-1.135-0.067c-1.164-0.068-2.329-0.134-3.492-0.2c-0.401-0.023-0.8-0.044-1.2-0.066
	c-0.862-0.048-1.725-0.095-2.585-0.141c-0.447-0.023-0.896-0.048-1.343-0.071c-0.913-0.048-1.824-0.096-2.737-0.141
	c-0.4-0.02-0.799-0.041-1.198-0.06c-1.052-0.052-2.105-0.104-3.156-0.154c-0.532-0.026-1.064-0.051-1.597-0.076
	c-0.737-0.035-1.474-0.068-2.209-0.102c-0.504-0.023-1.006-0.046-1.509-0.068c-1.035-0.046-2.069-0.091-3.104-0.135
	c-0.514-0.022-1.029-0.044-1.545-0.065c-0.772-0.032-1.543-0.063-2.315-0.095c-0.62-0.024-1.238-0.049-1.858-0.073
	c-0.611-0.023-1.222-0.047-1.833-0.07c-0.553-0.021-1.104-0.042-1.657-0.063c-1.133-0.042-2.263-0.083-3.396-0.122
	c-0.474-0.017-0.947-0.032-1.422-0.048c-0.736-0.025-1.472-0.05-2.207-0.074c-0.536-0.018-1.072-0.036-1.608-0.052
	c-0.922-0.029-1.843-0.058-2.765-0.086c-0.257-0.007-0.514-0.016-0.772-0.024c-1.168-0.035-2.336-0.068-3.503-0.101
	c-0.495-0.014-0.987-0.027-1.481-0.04c-0.777-0.021-1.554-0.042-2.331-0.062c-0.464-0.012-0.928-0.024-1.393-0.035
	c-1.193-0.03-2.387-0.059-3.581-0.087c0.468,0.311,0.934,0.624,1.398,0.939c0.525,0.356,1.05,0.713,1.572,1.073
	c0.062,0.043,0.124,0.086,0.188,0.129c0.336,0.232,0.672,0.466,1.007,0.701c0.251,0.175,0.501,0.351,0.752,0.527
	c0.124,0.089,0.249,0.176,0.373,0.264c2.265,1.603,4.497,3.24,6.686,4.903c3.771,2.87,7.42,5.817,10.967,8.901
	c44.024,37.813,74.1,90.27,106.558,140.351c2.304,3.605,4.643,7.171,6.996,10.733c20.034,30.271,41.388,59.196,67.776,82.982
	c3.361,3.04,6.792,5.973,10.348,8.823c3.128,2.543,6.334,5.003,9.628,7.396c38.436,27.903,84.404,42.928,129.033,59.143
	c18.236,6.631,36.39,13.53,54.411,20.702c2.972,1.179,5.944,2.353,8.887,3.566c66.506,26.729,131.537,57.058,194.727,90.809
	c20.867,37.436,41.099,74.431,56.113,115.228c17.748,48.22,30.553,99.581,35.342,150.826c9.267,99.04-0.044,197.106-32.936,291.195
	c-33.384,95.508-87.976,179.937-157.622,252.965c-25.736,26.985-52.855,52.604-79.994,78.19c0.911-15.343,1.207-30.715,0.935-46.074
	c15.707-36.171,24.94-74.112,28.466-112.558c0.003-0.043,0.009-0.087,0.012-0.13c0.217-2.372,0.412-4.744,0.586-7.12
	c0.015-0.202,0.028-0.406,0.043-0.608c0.071-0.979,0.137-1.957,0.199-2.937c0.014-0.201,0.027-0.403,0.041-0.605
	c0.07-1.128,0.136-2.256,0.197-3.385c0.011-0.215,0.021-0.43,0.033-0.646c0.045-0.858,0.086-1.718,0.127-2.577
	c0.02-0.458,0.041-0.916,0.061-1.374c0.025-0.615,0.049-1.23,0.073-1.846c0.018-0.502,0.039-1.005,0.056-1.507
	c0.032-0.933,0.06-1.864,0.086-2.797c0.018-0.688,0.033-1.377,0.048-2.065c0.008-0.316,0.015-0.634,0.02-0.95
	c0.016-0.768,0.029-1.535,0.041-2.304c0.001-0.097,0.001-0.193,0.003-0.29c0.132-9.908-0.1-19.827-0.678-29.735
	c-0.057-1.017-0.12-2.034-0.185-3.053c-0.068-1.065-0.139-2.132-0.213-3.197v-0.023c-0.45-6.107-1.032-12.209-1.741-18.299
	c-0.018-0.16-0.037-0.319-0.057-0.48c-0.117-1.004-0.239-2.009-0.363-3.013c-0.046-0.37-0.094-0.739-0.14-1.109
	c-0.1-0.784-0.201-1.568-0.304-2.352c-0.068-0.521-0.141-1.042-0.211-1.563c-0.088-0.648-0.176-1.296-0.268-1.945
	c-0.085-0.604-0.172-1.21-0.26-1.814c-0.079-0.554-0.161-1.107-0.243-1.662c-0.101-0.685-0.205-1.368-0.31-2.053
	c-0.072-0.466-0.144-0.931-0.217-1.397c-0.12-0.774-0.244-1.548-0.369-2.321c-0.057-0.347-0.113-0.693-0.171-1.041
	c-0.143-0.868-0.287-1.735-0.435-2.604c-0.044-0.259-0.089-0.52-0.134-0.778c-0.165-0.958-0.331-1.915-0.503-2.872
	c-0.021-0.123-0.043-0.247-0.066-0.371c-0.191-1.068-0.386-2.135-0.586-3.202l-0.007-0.036
	c-3.935-21.029-9.366-41.826-16.161-62.183c-0.755-2.305-1.544-4.594-2.351-6.896c-17.5-49.881-43.196-96.965-75.177-138.062
	c-1.072-1.369-2.144-2.733-3.216-4.078c-1.091-1.388-2.202-2.752-3.318-4.141c-3.155-3.887-6.356-7.726-9.602-11.524
	c-0.274-0.321-0.548-0.642-0.822-0.961c-0.286-0.333-0.573-0.665-0.86-0.998c-0.476-0.553-0.955-1.106-1.434-1.658
	c-0.154-0.177-0.308-0.355-0.463-0.532c-0.628-0.722-1.258-1.442-1.889-2.161c-0.037-0.04-0.072-0.081-0.107-0.121
	c-19.925-22.666-41.479-43.743-64.29-63.46c-0.095-0.081-0.189-0.163-0.282-0.245c-65.132-56.235-140.519-101.362-217.668-140.44
	c-0.026-0.013-0.051-0.025-0.077-0.039c-1.161-0.588-2.321-1.174-3.482-1.759c-0.091-0.045-0.18-0.091-0.271-0.136
	c-1.199-0.603-2.397-1.206-3.596-1.806c0.234,0.387,0.465,0.776,0.695,1.166c0.184,0.311,0.368,0.62,0.549,0.931
	c0.083,0.141,0.167,0.283,0.248,0.424c1.99,3.406,3.887,6.854,5.693,10.316c2.183,4.2,4.219,8.424,6.115,12.731
	c23.654,52.989,28.448,113.272,36.409,172.414c0.545,4.244,1.135,8.467,1.744,12.692c5.189,35.927,12.147,71.206,25.842,103.98
	c1.744,4.18,3.596,8.297,5.588,12.395c1.744,3.635,3.595,7.229,5.549,10.801c22.84,41.643,57.987,74.86,91.415,108.585
	c13.656,13.783,27.128,27.776,40.366,41.958c2.183,2.329,4.37,4.663,6.509,7.017c51.771,55.868,100.307,114.698,145.291,176.111
	c0.19,13.131-0.044,26.285-0.716,39.416c-0.217,4.235-0.485,8.48-0.799,12.72c-13.756-12.762-28.136-24.83-43.036-36.219
	c-0.089-0.166-0.179-0.331-0.268-0.497c-0.033-0.061-0.066-0.121-0.098-0.181c-0.54-1.005-1.084-2.006-1.632-3.004
	c-0.064-0.118-0.129-0.236-0.194-0.354c-1.188-2.158-2.398-4.299-3.626-6.426c-0.011-0.018-0.021-0.035-0.032-0.054
	c-18.917-32.695-42.705-61.693-70.057-86.831c-0.047-0.042-0.095-0.085-0.141-0.128c-0.851-0.78-1.702-1.557-2.558-2.329
	c-0.054-0.049-0.109-0.098-0.162-0.146c-0.894-0.805-1.79-1.606-2.692-2.404c-0.043-0.039-0.089-0.078-0.133-0.117
	c-0.784-0.692-1.571-1.381-2.359-2.068c-0.238-0.206-0.475-0.411-0.712-0.617c-0.633-0.549-1.268-1.095-1.905-1.64
	c-0.246-0.21-0.491-0.421-0.738-0.631c-0.773-0.659-1.549-1.314-2.329-1.967c-0.4-0.335-0.801-0.668-1.204-1.001
	c-0.393-0.328-0.787-0.655-1.181-0.98c-0.486-0.4-0.972-0.801-1.46-1.199c-0.279-0.227-0.559-0.454-0.836-0.682
	c-1.873-1.522-3.76-3.028-5.661-4.519c-0.06-0.047-0.118-0.093-0.179-0.14c-5.729-4.486-11.579-8.823-17.542-13.01
	c-0.57-0.401-1.14-0.802-1.713-1.201c-0.084-0.059-0.168-0.117-0.252-0.176c-1.016-0.705-2.034-1.409-3.057-2.109l-0.02-0.015
	c-5.075-3.452-10.229-6.795-15.452-10.032c-0.087-0.054-0.175-0.107-0.263-0.162c-0.909-0.563-1.82-1.122-2.733-1.678
	c-0.276-0.169-0.553-0.336-0.831-0.504c-0.731-0.443-1.464-0.885-2.197-1.324c-0.381-0.228-0.762-0.454-1.145-0.681
	c-0.636-0.378-1.273-0.754-1.911-1.129c-0.46-0.271-0.922-0.54-1.384-0.81c-0.555-0.323-1.111-0.645-1.667-0.966
	c-0.53-0.305-1.06-0.609-1.591-0.913c-0.494-0.281-0.989-0.563-1.483-0.844c-0.573-0.324-1.147-0.647-1.72-0.969
	c-0.454-0.255-0.909-0.507-1.364-0.76c-0.628-0.35-1.257-0.698-1.888-1.044c-0.392-0.217-0.787-0.431-1.179-0.646
	c-0.67-0.365-1.34-0.729-2.011-1.092c-0.359-0.193-0.722-0.387-1.082-0.58c-0.72-0.385-1.438-0.77-2.16-1.15
	c-0.287-0.152-0.576-0.303-0.864-0.453c-0.784-0.413-1.57-0.824-2.356-1.232c-0.204-0.106-0.407-0.21-0.611-0.315
	c-0.875-0.452-1.749-0.901-2.626-1.348l-0.1-0.051c-5.19-2.637-10.432-5.175-15.722-7.616c-0.033-0.016-0.066-0.03-0.099-0.046
	c-0.909-0.419-1.82-0.834-2.732-1.247c-0.194-0.089-0.39-0.178-0.586-0.267c-0.842-0.38-1.687-0.757-2.531-1.132
	c-0.259-0.115-0.517-0.23-0.776-0.346c-0.816-0.361-1.635-0.719-2.453-1.075c-0.288-0.125-0.572-0.25-0.86-0.374
	c-0.792-0.344-1.583-0.683-2.378-1.021c-0.319-0.137-0.641-0.274-0.961-0.41c-0.798-0.339-1.597-0.674-2.398-1.008
	c-0.293-0.122-0.587-0.245-0.88-0.367c-0.825-0.342-1.65-0.682-2.476-1.02c-0.274-0.112-0.549-0.225-0.824-0.336
	c-0.851-0.346-1.703-0.689-2.556-1.03l-0.713-0.284c-0.896-0.356-1.794-0.71-2.693-1.063c-0.178-0.068-0.356-0.139-0.535-0.208
	c-0.952-0.371-1.904-0.738-2.859-1.104c-0.119-0.046-0.239-0.091-0.358-0.137c-2.127-0.81-4.26-1.605-6.398-2.386l0,0
	c-0.057-0.021-0.115-0.042-0.171-0.063c-2.429-0.902-4.866-1.76-7.331-2.617c-49.954-17.291-102.81-26.426-154.879-26.918
	c-0.329-0.002-0.657-0.004-0.985-0.006c-0.5-0.002-1.003-0.005-1.501-0.007c-0.905-0.004-1.808-0.007-2.707-0.007
	c-1.007-0.003-2.016,0.004-3.025,0.012h-0.008c-0.755,0.006-1.512,0.014-2.273,0.018c-1.251,0.014-2.503,0.033-3.753,0.055
	c-109.416,1.87-216.001,34.521-317.064,77.955l-0.192,0.082c-2.466,1.06-4.929,2.127-7.388,3.199l-0.447,0.195
	c-1.092,0.477-2.18,0.954-3.27,1.432c-0.133,0.058-0.264,0.116-0.396,0.174c-2.43,1.068-4.855,2.142-7.277,3.221l-0.402,0.179
	c-1.071,0.479-2.143,0.958-3.215,1.438c-0.173,0.077-0.346,0.154-0.518,0.231c-1.187,0.533-2.374,1.067-3.561,1.604
	c-0.074,0.034-0.149,0.067-0.224,0.101c-1.11,0.501-2.218,1.004-3.327,1.507c-0.188,0.086-0.375,0.172-0.563,0.257
	c-1.086,0.494-2.172,0.988-3.256,1.484c-0.107,0.049-0.215,0.098-0.322,0.146c-1.152,0.527-2.305,1.056-3.454,1.585
	c-0.244,0.112-0.486,0.224-0.729,0.336c-0.884,0.407-1.769,0.814-2.65,1.223c-0.373,0.173-0.746,0.345-1.118,0.517
	c-1.089,0.505-2.177,1.01-3.264,1.516c0.536,0.069,1.07,0.142,1.605,0.215c0.177,0.024,0.355,0.049,0.532,0.074
	c0.337,0.047,0.673,0.095,1.009,0.143c0.328,0.047,0.656,0.095,0.983,0.144c0.194,0.028,0.388,0.059,0.583,0.088
	c0.429,0.064,0.858,0.13,1.286,0.196c0.081,0.013,0.16,0.025,0.24,0.038c0.51,0.081,1.02,0.162,1.528,0.245l0.041,0.007
	c1.683,0.276,3.361,0.57,5.031,0.881c0.56,0.104,1.12,0.21,1.679,0.318c4.653,0.901,9.228,1.93,13.779,3.123
	c56.214,14.402,106.411,48.117,157.695,78.641c3.663,2.212,7.337,4.375,11.025,6.523c31.367,18.266,63.328,34.743,97.515,44.386
	c4.36,1.231,8.736,2.343,13.189,3.327c3.932,0.892,7.892,1.676,11.908,2.363c46.816,7.994,94.684,1.105,141.88-4.122
	c19.284-2.134,38.616-3.985,57.954-5.54c3.187-0.263,6.372-0.526,9.549-0.74c75.941-5.832,152.195-7.289,228.263-4.355
	c10.407,8.015,20.565,16.37,30.436,25.062c3.883,3.421,7.726,6.905,11.519,10.438c-40.417,38.25-80.23,77.059-114.905,120.866
	c-60.867,76.916-111.771,172.915-102.134,273.997c1.013,10.616,16.73,11.06,16.867,0c0.293-23.398,2.83-45.667,7.289-66.959
	c1.057,0.082,2.192-0.253,3.294-1.173c5.632-4.74,11.381-9.384,17.203-13.9c10.392-8.053,21.052-15.761,31.937-23.107
	c76.102,1.816,152.117,8.024,227.547,18.582c3.157,0.414,6.319,0.872,9.481,1.335c19.206,2.757,38.382,5.813,57.5,9.14
	c46.771,8.16,94.119,18.022,141.345,12.97c4.049-0.438,8.054-0.975,12.034-1.623c4.502-0.701,8.94-1.539,13.363-2.499
	c34.729-7.488,67.649-21.938,100.103-38.212c3.81-1.914,7.615-3.844,11.41-5.822c53.082-27.264,105.286-57.783,162.29-68.652
	c4.619-0.906,9.247-1.647,13.944-2.256c3.943-0.512,7.93-0.93,11.937-1.244c0.006-0.001,0.014-0.001,0.02-0.002
	c0.524-0.041,1.05-0.08,1.576-0.118c0.37-0.025,0.738-0.054,1.108-0.078c-1.126-0.612-2.251-1.223-3.379-1.832
	c-0.213-0.115-0.427-0.231-0.64-0.346c-1.017-0.551-2.035-1.1-3.054-1.647c-0.104-0.057-0.209-0.113-0.314-0.17
	c-102.868-55.342-212.959-101.746-328.533-114.884c-0.21-0.024-0.421-0.048-0.63-0.071c-0.796-0.09-1.593-0.178-2.388-0.264
	c-0.36-0.039-0.723-0.079-1.083-0.117c-0.588-0.063-1.176-0.124-1.763-0.186c-0.555-0.057-1.107-0.114-1.661-0.171
	c-0.335-0.033-0.67-0.066-1.005-0.099c-5.021-0.5-10.051-0.938-15.093-1.31c-1.773-0.122-3.532-0.253-5.291-0.355
	c-1.72-0.112-3.449-0.21-5.184-0.313c-52-2.753-105.325,3.064-156.258,17.209c-2.528,0.704-5.025,1.411-7.52,2.166
	c-1.163,0.344-2.324,0.692-3.485,1.044c-0.02,0.007-0.039,0.013-0.057,0.019c-1.021,0.31-2.039,0.624-3.057,0.94
	c-0.156,0.049-0.312,0.097-0.468,0.145c-0.962,0.301-1.922,0.604-2.881,0.91c-0.186,0.06-0.373,0.119-0.559,0.179
	c-0.897,0.287-1.792,0.578-2.687,0.87c-0.284,0.093-0.568,0.186-0.852,0.279c-0.844,0.277-1.687,0.558-2.529,0.84
	c-0.297,0.1-0.593,0.2-0.891,0.3c-0.836,0.283-1.672,0.566-2.508,0.854c-0.305,0.105-0.611,0.211-0.917,0.316
	c-0.813,0.282-1.628,0.565-2.438,0.852c-0.343,0.121-0.687,0.243-1.03,0.364c-0.781,0.278-1.562,0.556-2.341,0.837
	c-0.375,0.136-0.75,0.272-1.125,0.409c-0.738,0.269-1.478,0.537-2.215,0.811c-0.428,0.157-0.853,0.316-1.28,0.477
	c-0.704,0.262-1.409,0.524-2.112,0.79c-0.442,0.168-0.885,0.337-1.328,0.507c-0.67,0.255-1.34,0.51-2.008,0.77
	c-0.562,0.217-1.122,0.438-1.681,0.656c-0.558,0.218-1.114,0.435-1.671,0.654c-0.624,0.247-1.248,0.498-1.871,0.749
	c-0.509,0.204-1.02,0.405-1.527,0.611c-1.112,0.451-2.221,0.904-3.328,1.363c-0.203,0.083-0.402,0.168-0.603,0.252
	c-0.924,0.384-1.848,0.77-2.769,1.159c-0.331,0.141-0.663,0.284-0.994,0.426c-0.797,0.339-1.593,0.678-2.387,1.022
	c-0.327,0.142-0.652,0.285-0.977,0.427c-0.811,0.354-1.621,0.707-2.429,1.063c-0.291,0.129-0.582,0.261-0.873,0.39
	c-0.833,0.371-1.665,0.743-2.496,1.119c-0.277,0.126-0.555,0.254-0.833,0.38c-0.857,0.39-1.715,0.781-2.569,1.176
	c-0.233,0.108-0.464,0.216-0.697,0.324c-0.896,0.416-1.792,0.834-2.685,1.257c-0.211,0.1-0.421,0.2-0.633,0.3
	c-0.913,0.434-1.822,0.868-2.731,1.307c-0.184,0.089-0.367,0.178-0.55,0.267c-0.962,0.466-1.925,0.936-2.883,1.408
	c-0.12,0.059-0.237,0.117-0.355,0.176c-1.031,0.509-2.058,1.021-3.083,1.539c-0.05,0.025-0.101,0.05-0.152,0.075
	c-8.828,4.453-17.5,9.193-25.99,14.224l-0.02,0.015c-1.076,0.642-2.149,1.287-3.217,1.935c-0.06,0.036-0.118,0.072-0.178,0.107
	c-0.85,0.517-1.698,1.034-2.542,1.555c-2.781,1.712-5.541,3.456-8.28,5.231c-0.22,0.142-0.438,0.283-0.657,0.426
	c-0.59,0.385-1.181,0.771-1.771,1.157c-0.35,0.23-0.698,0.462-1.048,0.693c-0.801,0.531-1.602,1.063-2.399,1.6
	c-0.518,0.35-1.039,0.698-1.555,1.05c-0.39,0.264-0.779,0.53-1.168,0.796c-0.591,0.404-1.181,0.81-1.769,1.216
	c-0.302,0.21-0.606,0.418-0.908,0.629c-0.914,0.634-1.823,1.271-2.731,1.914c-0.004,0.003-0.009,0.007-0.015,0.01
	c-0.941,0.667-1.879,1.337-2.815,2.012c-0.141,0.103-0.284,0.204-0.425,0.307c-38.104,27.521-71.319,61.585-96.994,102.027
	c-0.042,0.065-0.083,0.132-0.124,0.197c-0.624,0.983-1.243,1.97-1.857,2.96c-0.042,0.068-0.085,0.136-0.127,0.204
	c-0.097,0.157-0.196,0.313-0.292,0.469c-15.291,10.245-30.124,21.169-44.399,32.804c44.078-171.756,213.576-279.568,328.355-408.774
	c70.314-79.149,123.473-178.106,151.571-283.076c0.844-0.081,1.722-0.436,2.582-1.142c5.671-4.697,11.459-9.302,17.311-13.77
	c10.45-7.976,21.174-15.6,32.111-22.864c76.088,2.397,152.055,9.184,227.401,20.312c3.151,0.438,6.31,0.921,9.471,1.408
	c19.182,2.903,38.334,6.104,57.428,9.578c46.709,8.517,93.983,18.738,141.242,14.042c4.054-0.405,8.063-0.911,12.044-1.53
	c4.512-0.667,8.95-1.472,13.389-2.392c34.782-7.226,67.81-21.428,100.385-37.457c3.829-1.881,7.645-3.785,11.454-5.729
	c53.291-26.865,105.725-56.984,162.812-67.416c4.623-0.877,9.256-1.579,13.958-2.153c3.369-0.407,6.771-0.752,10.185-1.02
	c0.028-0.003,0.058-0.005,0.087-0.007c1.133-0.089,2.268-0.169,3.404-0.24l0.975-0.063
	C1999.179,1054.865,1998.095,1054.267,1997.011,1053.669z"/>
<path style="fill:#547129;" d="M1997.011,1053.669c-0.285-0.157-0.569-0.314-0.854-0.471c-0.917-0.504-1.835-1.008-2.753-1.512
	l-0.604-0.332c-2.317-1.27-4.64-2.535-6.965-3.794l-0.238-0.13c-105.345-57.072-218.307-104.209-337.213-115.204
	c-2.239-0.209-4.483-0.404-6.729-0.587c-1.773-0.136-3.532-0.282-5.291-0.399c-1.715-0.126-3.449-0.239-5.179-0.351
	c-51.98-3.152-105.345,2.266-156.385,16.02c-2.474,0.668-4.925,1.342-7.366,2.06c-3.47,0.994-6.926,2.028-10.371,3.101
	c-0.061,0.019-0.121,0.038-0.183,0.057c-1.055,0.329-2.107,0.661-3.158,0.996c-0.089,0.029-0.179,0.057-0.269,0.086
	c-1.018,0.326-2.033,0.655-3.049,0.987c-0.133,0.044-0.266,0.087-0.398,0.131c-0.988,0.325-1.975,0.652-2.96,0.983
	c-0.154,0.051-0.31,0.104-0.463,0.156c-0.972,0.327-1.941,0.657-2.911,0.991c-0.154,0.053-0.31,0.107-0.464,0.16
	c-0.966,0.334-1.931,0.67-2.896,1.01c-0.163,0.058-0.328,0.116-0.492,0.175c-0.966,0.342-1.931,0.686-2.894,1.034
	c-0.128,0.046-0.255,0.093-0.383,0.139c-1.002,0.363-2.005,0.729-3.005,1.099c-0.053,0.02-0.105,0.039-0.158,0.059
	c-6.385,2.365-12.714,4.869-18.98,7.51c-0.226,0.095-0.452,0.189-0.678,0.284c-0.759,0.321-1.516,0.647-2.273,0.973
	c-0.363,0.156-0.727,0.311-1.089,0.468c-0.649,0.28-1.295,0.565-1.943,0.848c-0.481,0.212-0.966,0.423-1.447,0.636
	c-0.592,0.261-1.18,0.525-1.768,0.789c-0.525,0.235-1.05,0.47-1.573,0.707c-0.545,0.246-1.088,0.494-1.632,0.742
	c-0.583,0.268-1.168,0.534-1.75,0.803c-0.481,0.222-0.96,0.445-1.439,0.67c-0.653,0.304-1.305,0.609-1.956,0.917
	c-0.413,0.195-0.825,0.391-1.238,0.587c-0.72,0.343-1.438,0.687-2.155,1.034c-0.356,0.171-0.709,0.342-1.063,0.514
	c-0.808,0.393-1.614,0.788-2.419,1.185c-0.243,0.12-0.485,0.239-0.728,0.359c-0.932,0.463-1.862,0.927-2.791,1.396
	c-0.13,0.065-0.26,0.131-0.39,0.196c-7.687,3.885-15.253,7.989-22.683,12.315l-0.015,0.015c-0.95,0.557-1.896,1.117-2.843,1.68
	c-0.31,0.185-0.621,0.369-0.931,0.554c-0.4,0.24-0.802,0.482-1.201,0.723c-5.464,3.285-10.852,6.69-16.153,10.218
	c-0.147,0.098-0.295,0.195-0.441,0.293c-0.562,0.374-1.12,0.75-1.678,1.126c-0.365,0.246-0.73,0.493-1.096,0.74
	c-0.479,0.326-0.958,0.651-1.437,0.979c-0.792,0.542-1.581,1.085-2.369,1.633c-0.246,0.171-0.492,0.344-0.738,0.517
	c-0.726,0.507-1.451,1.016-2.173,1.527c-0.252,0.178-0.502,0.357-0.753,0.536c-0.777,0.553-1.554,1.108-2.326,1.667
	c-0.134,0.097-0.268,0.193-0.402,0.29c-1.967,1.424-3.921,2.866-5.861,4.326c-0.01,0.008-0.021,0.016-0.031,0.024
	c-35.824,26.95-67.059,59.881-91.396,98.663c-14.957,9.855-29.486,20.364-43.496,31.546
	c18.627-76.872,23.753-156.569,12.314-233.762c-2.807-18.933-6.146-38.139-10.121-57.406c17.327-10.084,34.091-21.091,50.281-32.879
	c0.196-0.04,0.392-0.082,0.588-0.123c0.029-0.006,0.059-0.012,0.089-0.018c1.183-0.244,2.362-0.495,3.54-0.75
	c0.063-0.014,0.127-0.027,0.19-0.041c46.818-10.193,90.246-29.671,129.206-55.991l0.38-0.257c1.905-1.29,3.801-2.597,5.684-3.919
	c0.264-0.185,0.526-0.371,0.789-0.557c0.636-0.448,1.269-0.897,1.9-1.349c0.335-0.239,0.669-0.478,1.003-0.718
	c0.644-0.463,1.286-0.928,1.928-1.394c0.615-0.447,1.228-0.896,1.839-1.347c0.395-0.29,0.789-0.58,1.181-0.871
	c0.541-0.4,1.081-0.804,1.62-1.208c0.256-0.191,0.512-0.384,0.768-0.576c2.542-1.912,5.064-3.852,7.563-5.822
	c1.85-1.454,3.693-2.933,5.534-4.421l0.015-0.014c8.599-7.02,16.933-14.383,24.991-22.055c0.054-0.05,0.104-0.1,0.158-0.149
	c0.826-0.788,1.649-1.58,2.471-2.373c0.087-0.084,0.175-0.169,0.262-0.253c0.786-0.762,1.57-1.526,2.351-2.295
	c0.116-0.114,0.231-0.228,0.347-0.342c0.748-0.736,1.492-1.476,2.234-2.218c0.141-0.141,0.282-0.282,0.424-0.423
	c0.729-0.728,1.453-1.461,2.175-2.195c0.146-0.149,0.293-0.297,0.438-0.445c0.702-0.714,1.401-1.433,2.098-2.152
	c0.17-0.174,0.339-0.348,0.508-0.523c0.722-0.747,1.439-1.497,2.155-2.248c0.126-0.133,0.253-0.264,0.38-0.397
	c0.749-0.788,1.494-1.58,2.238-2.373c0.1-0.108,0.202-0.215,0.304-0.323c0.834-0.893,1.666-1.788,2.493-2.688
	c0.007-0.007,0.014-0.014,0.02-0.021c0.823-0.895,1.643-1.793,2.459-2.694c0.367-0.405,0.729-0.812,1.096-1.218
	c0.44-0.491,0.881-0.979,1.321-1.472c0.479-0.537,0.952-1.076,1.429-1.615c0.312-0.354,0.625-0.705,0.937-1.06
	c0.496-0.565,0.989-1.132,1.482-1.7c0.302-0.348,0.605-0.695,0.907-1.045c0.514-0.595,1.025-1.192,1.537-1.79
	c0.256-0.3,0.513-0.599,0.769-0.899c0.542-0.637,1.082-1.277,1.621-1.917c0.234-0.278,0.47-0.556,0.703-0.835
	c0.553-0.661,1.104-1.323,1.654-1.986c0.202-0.245,0.404-0.488,0.606-0.732c0.592-0.717,1.182-1.436,1.769-2.156
	c0.147-0.181,0.296-0.363,0.443-0.546c0.63-0.773,1.257-1.55,1.881-2.329c0.104-0.129,0.208-0.259,0.312-0.389
	c0.653-0.814,1.302-1.631,1.948-2.449c0.075-0.094,0.149-0.188,0.223-0.282c0.688-0.871,1.372-1.745,2.054-2.621
	c0.009-0.011,0.018-0.023,0.026-0.034c2.167-2.788,4.305-5.602,6.409-8.438c0.106-0.141,0.211-0.283,0.316-0.425
	c1.482-1.981,2.935-3.978,4.39-6.001c30.802-42.962,54.612-91.026,69.915-140.804c0.502-1.662,1.004-3.323,1.491-4.97
	c0.506-1.691,0.988-3.386,1.485-5.096c1.05-3.684,2.061-7.375,3.038-11.072c0.146-0.555,0.294-1.109,0.438-1.665
	c0.065-0.251,0.13-0.503,0.195-0.754c0.221-0.85,0.44-1.702,0.658-2.552l0.084-0.335c22.142-86.966,24.334-177.789,16.776-267.886
	c-0.004-0.035-0.007-0.072-0.01-0.107c-0.23-2.739-0.469-5.478-0.717-8.214c-0.002-0.028-0.004-0.056-0.007-0.083
	c-0.115-1.257-0.23-2.513-0.348-3.768c-0.017-0.182-0.033-0.363-0.051-0.545c-0.242-2.583-0.492-5.165-0.75-7.747
	c-0.026-0.262-0.053-0.523-0.078-0.785c-0.103-1.015-0.206-2.03-0.31-3.045c-0.033-0.316-0.064-0.631-0.098-0.946
	c-0.126-1.226-0.254-2.453-0.385-3.679c-0.025-0.249-0.054-0.497-0.079-0.745c-0.104-0.964-0.207-1.927-0.312-2.891
	c-0.046-0.424-0.091-0.847-0.138-1.271c-0.107-0.979-0.217-1.958-0.325-2.938c-0.028-0.255-0.058-0.51-0.085-0.765
	c-0.137-1.214-0.274-2.428-0.413-3.642c-0.044-0.374-0.087-0.747-0.129-1.121c-0.099-0.846-0.198-1.691-0.297-2.538
	c-0.052-0.449-0.104-0.898-0.158-1.346c-0.102-0.869-0.206-1.739-0.311-2.608c-0.075-0.633-0.152-1.267-0.229-1.9
	c-0.102-0.848-0.205-1.695-0.309-2.543c-0.069-0.564-0.139-1.128-0.21-1.692c-0.084-0.68-0.169-1.361-0.254-2.042
	c-0.067-0.535-0.134-1.071-0.201-1.607c-0.109-0.859-0.218-1.718-0.329-2.576c-0.096-0.755-0.193-1.511-0.291-2.266
	c-0.087-0.671-0.174-1.341-0.262-2.012c-0.078-0.603-0.158-1.208-0.237-1.812c-0.083-0.633-0.167-1.265-0.251-1.897
	c-0.076-0.566-0.151-1.131-0.227-1.697c-0.147-1.102-0.297-2.205-0.446-3.308c-0.062-0.451-0.124-0.902-0.185-1.353l-0.307-2.23
	c-0.077-0.555-0.154-1.11-0.23-1.665c-0.111-0.791-0.222-1.582-0.333-2.373c-0.052-0.378-0.106-0.756-0.159-1.134
	c-0.161-1.136-0.322-2.271-0.483-3.406c-0.066-0.455-0.13-0.909-0.196-1.364c-0.118-0.82-0.236-1.641-0.355-2.46
	c-0.065-0.444-0.13-0.888-0.195-1.332c-0.172-1.18-0.345-2.358-0.519-3.537c-0.2,0.45-0.401,0.898-0.603,1.346
	c-0.107,0.237-0.216,0.475-0.323,0.712c-0.122,0.269-0.245,0.537-0.369,0.806c-0.147,0.319-0.295,0.639-0.443,0.959
	c-0.069,0.148-0.138,0.296-0.207,0.444c-1.424,3.038-2.911,6.037-4.442,8.985c-2.188,4.2-4.477,8.293-6.918,12.317
	c-3.294,32.093-7.474,64.122-12.702,95.98c-9.407,57.267-22.192,114.076-39.663,169.428c-6.239,19.771-13.064,39.368-20.517,58.724
	c-0.024,0.031-0.049,0.062-0.073,0.092c-0.135,0.175-0.189,0.372-0.182,0.566c-7.203,18.671-14.992,37.116-23.407,55.274
	c14.204-47.588,19.623-98.583,13.479-146.637c-4.595-35.985-17.102-73.018-37.229-104.657c-3.161,2.884-6.279,5.788-9.393,8.711
	c20.541,30.914,33.174,67.245,37.403,105.383c6.726,60.626-7.525,117.945-23.226,175.515c-6.205,11.648-12.618,23.183-19.235,34.594
	c-11.442,19.411-23.703,38.343-36.782,56.69c1.613-3.487,3.165-7.004,4.65-10.551c29.189-69.822,30.515-149.461,1.935-219.746
	c-8.931-21.963-20.673-42.524-35.06-61.043c-2.426,3.825-4.735,7.703-6.947,11.689c31.435,42.036,49.267,93.939,51.961,146.621
	c3.386,66.094-18.761,130.323-56.336,184.015c-3.423,4.007-6.89,7.977-10.402,11.907c-1.463,1.635-2.937,3.26-4.416,4.881
	c9.116-19.271,13.044-40.736,8.854-64.516c-5.063-28.857-20.745-57.276-42.967-77.852c-0.658,3.128-1.311,6.256-2.008,9.359
	c21.087,19.805,35.625,47.206,39.488,75.927c3.402,25.288-3.976,50.583-17.376,71.979c-25.549,26.358-53.25,50.617-82.945,72.148
	c-10.646,7.693-21.549,15.05-32.687,22.037c-4.132,2.59-8.309,5.13-12.513,7.614c-13.796-63.124-34.589-126.49-65.901-182.682
	c-3.696-8.42-7.587-16.752-11.662-24.995c-1.326-41.968-10.146-82.617-24.969-120.958c-0.004-0.011-0.009-0.022-0.013-0.032
	c-0.41-1.063-0.825-2.123-1.245-3.181c-0.043-0.107-0.085-0.214-0.127-0.321c-0.182-0.455-0.363-0.91-0.546-1.365
	c-0.111-0.273-0.221-0.548-0.333-0.822c-0.208-0.517-0.417-1.032-0.628-1.548c-0.216-0.526-0.432-1.052-0.649-1.577
	c-0.113-0.271-0.227-0.542-0.34-0.814c-0.222-0.535-0.447-1.069-0.672-1.602c-0.083-0.197-0.165-0.393-0.249-0.59
	c-0.314-0.741-0.631-1.481-0.948-2.221c-0.043-0.1-0.087-0.2-0.131-0.3c-0.325-0.753-0.652-1.505-0.983-2.257l-0.025-0.058
	c-4.957-11.282-10.434-22.344-16.39-33.161c-0.07-0.128-0.141-0.256-0.211-0.384c-0.082-0.15-0.166-0.3-0.249-0.45
	c-0.592-1.076-1.188-2.151-1.79-3.224l-0.01-0.019c-4.852-8.581-10.007-17-15.438-25.247l-0.183-0.276
	c-0.554-0.841-1.112-1.681-1.672-2.519c-0.205-0.305-0.408-0.608-0.612-0.912c-0.412-0.612-0.825-1.223-1.24-1.833
	c-0.303-0.444-0.606-0.889-0.91-1.331c-0.262-0.384-0.524-0.767-0.788-1.149c-0.45-0.652-0.903-1.303-1.355-1.953
	c-0.187-0.267-0.372-0.533-0.558-0.798c-0.514-0.734-1.031-1.466-1.549-2.196c-0.167-0.235-0.334-0.47-0.501-0.704
	c-0.542-0.761-1.087-1.52-1.633-2.277c-0.137-0.19-0.274-0.38-0.412-0.569c-0.576-0.795-1.156-1.59-1.737-2.381
	c-0.104-0.14-0.206-0.28-0.31-0.42c-0.625-0.85-1.253-1.697-1.884-2.543c-0.039-0.052-0.078-0.103-0.116-0.154
	c-11.253-15.054-23.456-29.442-36.466-43.074v-0.001c-0.157-0.167-0.314-0.331-0.473-0.497c-1.665-1.757-3.354-3.487-5.067-5.228
	c-37.125-37.627-80.473-69.227-126.938-92.73c-0.914-0.46-1.829-0.916-2.742-1.37c-0.635-0.316-1.273-0.632-1.906-0.944
	c-0.88-0.438-1.766-0.868-2.653-1.298c-0.057-0.027-0.115-0.056-0.171-0.083c-0.647-0.314-1.295-0.627-1.945-0.944
	c-2.085-1.001-4.175-1.99-6.271-2.966c-84.414-39.361-176.791-57.921-270.176-66.015c-0.121-0.011-0.241-0.021-0.361-0.032
	c-2.691-0.232-5.383-0.457-8.076-0.672l-0.146-0.012c-1.241-0.099-2.481-0.196-3.722-0.291c-0.192-0.015-0.386-0.03-0.578-0.044
	c-2.572-0.197-5.144-0.386-7.717-0.568c-0.287-0.02-0.576-0.041-0.864-0.06c-1.058-0.074-2.118-0.148-3.176-0.22
	c-0.217-0.015-0.434-0.029-0.651-0.044c-1.25-0.084-2.503-0.167-3.752-0.247c-0.295-0.019-0.59-0.038-0.884-0.056
	c-0.978-0.063-1.956-0.124-2.934-0.185c-0.378-0.023-0.756-0.046-1.135-0.07c-0.904-0.055-1.809-0.109-2.714-0.162
	c-0.378-0.023-0.756-0.046-1.135-0.067c-1.164-0.068-2.329-0.134-3.492-0.2c-0.401-0.023-0.8-0.044-1.2-0.066
	c-0.862-0.048-1.725-0.095-2.585-0.141c-0.447-0.023-0.896-0.048-1.343-0.071c-0.913-0.048-1.824-0.096-2.737-0.141
	c-0.4-0.02-0.799-0.041-1.198-0.06c-1.052-0.052-2.105-0.104-3.156-0.154c-0.532-0.026-1.064-0.051-1.597-0.076
	c-0.737-0.035-1.474-0.068-2.209-0.102c-0.504-0.023-1.006-0.046-1.509-0.068c-1.035-0.046-2.069-0.091-3.104-0.135
	c-0.514-0.022-1.029-0.044-1.545-0.065c-0.772-0.032-1.543-0.063-2.315-0.095c-0.62-0.024-1.238-0.049-1.858-0.073
	c-0.611-0.023-1.222-0.047-1.833-0.07c-0.553-0.021-1.104-0.042-1.657-0.063c-1.133-0.042-2.263-0.083-3.396-0.122
	c-0.474-0.017-0.947-0.032-1.422-0.048c-0.736-0.025-1.472-0.05-2.207-0.074c-0.536-0.018-1.072-0.036-1.608-0.052
	c-0.922-0.029-1.843-0.058-2.765-0.086c-0.257-0.007-0.514-0.016-0.772-0.024c-1.168-0.035-2.336-0.068-3.503-0.101
	c-0.495-0.014-0.987-0.027-1.481-0.04c-0.777-0.021-1.554-0.042-2.331-0.062c-0.464-0.012-0.928-0.024-1.393-0.035
	c-1.193-0.03-2.387-0.059-3.581-0.087c0.468,0.311,0.934,0.624,1.398,0.939c0.525,0.356,1.05,0.713,1.572,1.073
	c0.062,0.043,0.124,0.086,0.188,0.129c0.336,0.232,0.672,0.466,1.007,0.701c0.251,0.175,0.501,0.351,0.752,0.527
	c0.124,0.089,0.249,0.176,0.373,0.264c2.265,1.603,4.497,3.24,6.686,4.903c3.771,2.87,7.42,5.817,10.967,8.901
	c31.074,8.678,61.934,18.222,92.448,28.766c54.851,18.962,108.678,41.174,160.272,67.766c18.43,9.493,36.587,19.536,54.404,30.155
	l0.077,0.086c0.151,0.163,0.337,0.25,0.531,0.277c17.185,10.26,34.048,21.061,50.522,32.428
	c-44.5-22.056-93.846-36.027-142.249-38.103c-36.244-1.564-74.855,4.496-109.447,18.977c2.304,3.605,4.643,7.171,6.996,10.733
	c33.943-15.011,71.888-21.315,110.192-19.025c60.889,3.628,114.976,27.376,169.057,52.593c10.43,8.085,20.712,16.356,30.836,24.81
	c17.196,14.562,33.782,29.851,49.653,45.847c-3.164-2.181-6.369-4.306-9.614-6.372C901.266,423.938,823,409.16,748.891,425.429
	c-23.157,5.086-45.407,13.174-66.094,24.224c3.361,3.04,6.792,5.973,10.348,8.823c46.748-23.869,100.92-32.653,153.296-26.397
	c65.716,7.85,125.268,40.543,171.824,86.66c3.372,4.054,6.699,8.144,9.978,12.273c1.363,1.718,2.713,3.444,4.061,5.175
	c-17.449-12.242-37.939-19.747-62.083-19.64c-29.301,0.103-59.96,10.752-84.005,29.169c2.972,1.179,5.944,2.353,8.887,3.566
	c23.088-17.437,52.555-27.123,81.515-26.07c25.501,0.926,49.179,12.478,68,29.307c21.653,29.642,40.873,61.046,57.072,93.957
	c-3.946-2.142-7.9-4.269-11.859-6.385c20.867,37.436,41.099,74.431,56.113,115.228c17.748,48.22,30.553,99.581,35.342,150.826
	c9.267,99.04-0.044,197.106-32.936,291.195c-33.384,95.508-87.976,179.937-157.622,252.965
	c-25.736,26.985-52.855,52.604-79.994,78.19c0.911-15.343,1.207-30.715,0.935-46.074c15.707-36.171,24.94-74.112,28.466-112.558
	c0.003-0.043,0.009-0.087,0.012-0.13c0.217-2.372,0.412-4.744,0.586-7.12c0.015-0.202,0.028-0.406,0.043-0.608
	c0.071-0.979,0.137-1.957,0.199-2.937c0.014-0.201,0.027-0.403,0.041-0.605c0.07-1.128,0.136-2.256,0.197-3.385
	c0.011-0.215,0.021-0.43,0.033-0.646c0.045-0.858,0.086-1.718,0.127-2.577c0.02-0.458,0.041-0.916,0.061-1.374
	c0.025-0.615,0.049-1.23,0.073-1.846c0.018-0.502,0.039-1.005,0.056-1.507c0.032-0.933,0.06-1.864,0.086-2.797
	c0.018-0.688,0.033-1.377,0.048-2.065c0.008-0.316,0.015-0.634,0.02-0.95c0.016-0.768,0.029-1.535,0.041-2.304
	c0.001-0.097,0.001-0.193,0.003-0.29c0.132-9.908-0.1-19.827-0.678-29.735c-0.057-1.017-0.12-2.034-0.185-3.053
	c-0.068-1.065-0.139-2.132-0.213-3.197v-0.023c-0.45-6.107-1.032-12.209-1.741-18.299c-0.018-0.16-0.037-0.319-0.057-0.48
	c-0.117-1.004-0.239-2.009-0.363-3.013c-0.046-0.37-0.094-0.739-0.14-1.109c-0.1-0.784-0.201-1.568-0.304-2.352
	c-0.068-0.521-0.141-1.042-0.211-1.563c-0.088-0.648-0.176-1.296-0.268-1.945c-0.085-0.604-0.172-1.21-0.26-1.814
	c-0.079-0.554-0.161-1.107-0.243-1.662c-0.101-0.685-0.205-1.368-0.31-2.053c-0.072-0.466-0.144-0.931-0.217-1.397
	c-0.12-0.774-0.244-1.548-0.369-2.321c-0.057-0.347-0.113-0.693-0.171-1.041c-0.143-0.868-0.287-1.735-0.435-2.604
	c-0.044-0.259-0.089-0.52-0.134-0.778c-0.165-0.958-0.331-1.915-0.503-2.872c-0.021-0.123-0.043-0.247-0.066-0.371
	c-0.191-1.068-0.386-2.135-0.586-3.202l-0.007-0.036c-3.935-21.029-9.366-41.826-16.161-62.183
	c-0.755-2.305-1.544-4.594-2.351-6.896c-17.5-49.881-43.196-96.965-75.177-138.062c-1.072-1.369-2.144-2.733-3.216-4.078
	c-1.091-1.388-2.202-2.752-3.318-4.141c-3.155-3.887-6.356-7.726-9.602-11.524c-0.274-0.321-0.548-0.642-0.822-0.961
	c-0.286-0.333-0.573-0.665-0.86-0.998c-0.476-0.553-0.955-1.106-1.434-1.658c-0.154-0.177-0.308-0.355-0.463-0.532
	c-0.628-0.722-1.258-1.442-1.889-2.161c-0.037-0.04-0.072-0.081-0.107-0.121c-19.925-22.666-41.479-43.743-64.29-63.46
	c-0.095-0.081-0.189-0.163-0.282-0.245c-65.132-56.235-140.519-101.362-217.668-140.44c-0.026-0.013-0.051-0.025-0.077-0.039
	c-1.161-0.588-2.321-1.174-3.482-1.759c-0.091-0.045-0.18-0.091-0.271-0.136c-1.199-0.603-2.397-1.206-3.596-1.806
	c0.234,0.387,0.465,0.776,0.695,1.166c0.184,0.311,0.368,0.62,0.549,0.931c0.083,0.141,0.167,0.283,0.248,0.424
	c1.99,3.406,3.887,6.854,5.693,10.316c2.183,4.2,4.219,8.424,6.115,12.731c24.39,21.116,48.219,42.928,71.308,65.491
	c41.496,40.57,80.682,83.645,115.98,129.72c12.609,16.456,24.738,33.293,36.312,50.504c0.012,0.037,0.023,0.075,0.034,0.112
	c0.066,0.209,0.196,0.361,0.356,0.467c11.158,16.618,21.794,33.586,31.837,50.899c-30.819-38.944-69.47-72.65-112.349-95.195
	c-32.102-16.892-69.607-27.902-107.069-29.583c0.545,4.244,1.135,8.467,1.744,12.692c37.106,0.926,74.105,11.43,107.761,29.856
	c53.51,29.28,92.269,73.848,130.399,119.745c6.078,11.961,11.934,24.031,17.565,36.201c9.229,20.331,17.609,41.051,25.059,62.098
	c-1.934-3.331-3.931-6.631-5.988-9.893c-40.424-63.976-104.882-110.768-178.84-127.703c-23.113-5.295-46.684-7.479-70.114-6.323
	c1.744,4.18,3.596,8.297,5.588,12.395c52.468-1.617,105.203,13.573,149.89,41.603c56.067,35.16,95.953,90.157,118.359,151.74
	c1.317,5.104,2.578,10.225,3.78,15.358c0.498,2.135,0.984,4.272,1.461,6.413c-10.549-18.521-25.87-34.059-47.751-44.273
	c-26.534-12.42-58.807-15.884-88.409-9.497c2.183,2.329,4.37,4.663,6.509,7.017c28.327-5.905,59.104-2.08,84.843,11.239
	c22.661,11.726,39.137,32.282,48.968,55.533c6.922,36.053,10.889,72.662,11.48,109.339c0.19,13.131-0.044,26.285-0.716,39.416
	c-0.217,4.235-0.485,8.48-0.799,12.72c-13.756-12.762-28.136-24.83-43.036-36.219c-0.089-0.166-0.179-0.331-0.268-0.497
	c-0.033-0.061-0.066-0.121-0.098-0.181c-0.54-1.005-1.084-2.006-1.632-3.004c-0.064-0.118-0.129-0.236-0.194-0.354
	c-1.188-2.158-2.398-4.299-3.626-6.426c-0.011-0.018-0.021-0.035-0.032-0.054c-18.917-32.695-42.705-61.693-70.057-86.831
	c-0.047-0.042-0.095-0.085-0.141-0.128c-0.851-0.78-1.702-1.557-2.558-2.329c-0.054-0.049-0.109-0.098-0.162-0.146
	c-0.894-0.805-1.79-1.606-2.692-2.404c-0.043-0.039-0.089-0.078-0.133-0.117c-0.784-0.692-1.571-1.381-2.359-2.068
	c-0.238-0.206-0.475-0.411-0.712-0.617c-0.633-0.549-1.268-1.095-1.905-1.64c-0.246-0.21-0.491-0.421-0.738-0.631
	c-0.773-0.659-1.549-1.314-2.329-1.967c-0.4-0.335-0.801-0.668-1.204-1.001c-0.393-0.328-0.787-0.655-1.181-0.98
	c-0.486-0.4-0.972-0.801-1.46-1.199c-0.279-0.227-0.559-0.454-0.836-0.682c-1.873-1.522-3.76-3.028-5.661-4.519
	c-0.06-0.047-0.118-0.093-0.179-0.14c-5.729-4.486-11.579-8.823-17.542-13.01c-0.57-0.401-1.14-0.802-1.713-1.201
	c-0.084-0.059-0.168-0.117-0.252-0.176c-1.016-0.705-2.034-1.409-3.057-2.109l-0.02-0.015c-5.075-3.452-10.229-6.795-15.452-10.032
	c-0.087-0.054-0.175-0.107-0.263-0.162c-0.909-0.563-1.82-1.122-2.733-1.678c-0.276-0.169-0.553-0.336-0.831-0.504
	c-0.731-0.443-1.464-0.885-2.197-1.324c-0.381-0.228-0.762-0.454-1.145-0.681c-0.636-0.378-1.273-0.754-1.911-1.129
	c-0.46-0.271-0.922-0.54-1.384-0.81c-0.555-0.323-1.111-0.645-1.667-0.966c-0.53-0.305-1.06-0.609-1.591-0.913
	c-0.494-0.281-0.989-0.563-1.483-0.844c-0.573-0.324-1.147-0.647-1.72-0.969c-0.454-0.255-0.909-0.507-1.364-0.76
	c-0.628-0.35-1.257-0.698-1.888-1.044c-0.392-0.217-0.787-0.431-1.179-0.646c-0.67-0.365-1.34-0.729-2.011-1.092
	c-0.359-0.193-0.722-0.387-1.082-0.58c-0.72-0.385-1.438-0.77-2.16-1.15c-0.287-0.152-0.576-0.303-0.864-0.453
	c-0.784-0.413-1.57-0.824-2.356-1.232c-0.204-0.106-0.407-0.21-0.611-0.315c-0.875-0.452-1.749-0.901-2.626-1.348l-0.1-0.051
	c-5.19-2.637-10.432-5.175-15.722-7.616c-0.033-0.016-0.066-0.03-0.099-0.046c-0.909-0.419-1.82-0.834-2.732-1.247
	c-0.194-0.089-0.39-0.178-0.586-0.267c-0.842-0.38-1.687-0.757-2.531-1.132c-0.259-0.115-0.517-0.23-0.776-0.346
	c-0.816-0.361-1.635-0.719-2.453-1.075c-0.288-0.125-0.572-0.25-0.86-0.374c-0.792-0.344-1.583-0.683-2.378-1.021
	c-0.319-0.137-0.641-0.274-0.961-0.41c-0.798-0.339-1.597-0.674-2.398-1.008c-0.293-0.122-0.587-0.245-0.88-0.367
	c-0.825-0.342-1.65-0.682-2.476-1.02c-0.274-0.112-0.549-0.225-0.824-0.336c-0.851-0.346-1.703-0.689-2.556-1.03l-0.713-0.284
	c-0.896-0.356-1.794-0.71-2.693-1.063c-0.178-0.068-0.356-0.139-0.535-0.208c-0.952-0.371-1.904-0.738-2.859-1.104
	c-0.119-0.046-0.239-0.091-0.358-0.137c-2.127-0.81-4.26-1.605-6.398-2.386c-0.057-0.021-0.115-0.042-0.171-0.063
	c-2.429-0.902-4.866-1.76-7.331-2.617c-49.954-17.291-102.81-26.426-154.879-26.918c-0.329-0.002-0.657-0.004-0.985-0.006
	c-0.5-0.002-1.003-0.005-1.501-0.007c-0.905-0.004-1.808-0.007-2.707-0.007c-1.007-0.003-2.016,0.004-3.025,0.012h-0.008
	c-0.755,0.006-1.512,0.014-2.273,0.018c-1.251,0.014-2.503,0.033-3.753,0.055c-109.416,1.87-216.001,34.521-317.064,77.955
	l-0.192,0.082c-2.466,1.06-4.929,2.127-7.388,3.199l-0.447,0.195c-1.092,0.477-2.18,0.954-3.27,1.432
	c-0.133,0.058-0.264,0.116-0.396,0.174c-2.43,1.068-4.855,2.142-7.277,3.221l-0.402,0.179c-1.071,0.479-2.143,0.958-3.215,1.438
	c-0.173,0.077-0.346,0.154-0.518,0.231c-1.187,0.533-2.374,1.067-3.561,1.604c-0.074,0.034-0.149,0.067-0.224,0.101
	c-1.11,0.501-2.218,1.004-3.327,1.507c-0.188,0.086-0.375,0.172-0.563,0.257c-1.086,0.494-2.172,0.988-3.256,1.484
	c-0.107,0.049-0.215,0.098-0.322,0.146c-1.152,0.527-2.305,1.056-3.454,1.585c-0.244,0.112-0.486,0.224-0.729,0.336
	c-0.884,0.407-1.769,0.814-2.65,1.223c-0.373,0.173-0.746,0.345-1.118,0.517c-1.089,0.505-2.177,1.01-3.264,1.516
	c0.536,0.069,1.07,0.142,1.605,0.215c0.177,0.024,0.355,0.049,0.532,0.074c0.337,0.047,0.673,0.095,1.009,0.143
	c0.328,0.047,0.656,0.095,0.983,0.144c0.194,0.028,0.388,0.059,0.583,0.088c0.429,0.064,0.858,0.13,1.286,0.196
	c0.081,0.013,0.16,0.025,0.24,0.038c0.51,0.081,1.02,0.162,1.528,0.245l0.041,0.007c1.683,0.276,3.361,0.57,5.031,0.881
	c0.56,0.104,1.12,0.21,1.679,0.318c4.653,0.901,9.228,1.93,13.779,3.123c31.703-5.983,63.595-11.094,95.625-15.157
	c57.573-7.289,115.668-11.211,173.704-10.227c20.729,0.35,41.457,1.313,62.133,2.943c0.036,0.014,0.072,0.029,0.108,0.043
	c0.207,0.08,0.412,0.075,0.596,0.013c19.955,1.589,39.857,3.802,59.665,6.697c-49.666-0.066-100.096,9.263-144.412,28.842
	c-33.188,14.65-65.125,37.185-89.725,65.486c3.663,2.212,7.337,4.375,11.025,6.523c23.786-28.492,55.011-50.947,90.368-65.86
	c56.2-23.716,115.208-26.379,174.862-27.724c12.974,2.639,25.896,5.511,38.76,8.616c21.823,5.433,43.421,11.785,64.693,19.083
	c-3.802-0.553-7.614-1.038-11.436-1.452c-75.245-8.098-151.961,13.315-211.196,60.726c-18.514,14.817-34.879,31.927-48.536,50.997
	c4.36,1.231,8.736,2.343,13.189,3.327c31.337-42.104,76.02-73.978,125.753-91.566c62.373-22.06,130.229-19.133,192.383,1.578
	c4.833,2.149,9.644,4.35,14.429,6.607c1.98,0.936,3.955,1.883,5.926,2.837c-21.066-3.247-42.757-0.901-64.358,9.889
	c-26.216,13.072-48.994,36.194-62.392,63.356c3.187-0.263,6.372-0.526,9.549-0.74c12.975-25.856,35.104-47.591,61.535-59.474
	c23.272-10.465,49.618-10.596,73.941-3.845c32.544,16.982,63.688,36.629,92.787,58.963c10.407,8.015,20.565,16.37,30.436,25.062
	c3.883,3.421,7.726,6.905,11.519,10.438c-40.417,38.25-80.23,77.059-114.905,120.866
	c-60.867,76.916-111.771,172.915-102.134,273.997c1.013,10.616,16.73,11.06,16.867,0c0.293-23.398,2.83-45.667,7.289-66.959
	c1.057,0.082,2.192-0.253,3.294-1.173c5.632-4.74,11.381-9.384,17.203-13.9c10.392-8.053,21.052-15.761,31.937-23.107
	c30.434-20.475,62.736-38.141,96.273-53.062c24.7-5.226,50.989-3.455,73.569,8.442c25.637,13.51,46.367,36.584,57.705,63.201
	c3.157,0.414,6.319,0.872,9.481,1.335c-11.674-27.947-32.965-52.448-58.319-67.128c-20.883-12.111-42.385-15.81-63.609-13.886
	c2.025-0.829,4.055-1.651,6.089-2.461c4.91-1.951,9.843-3.845,14.794-5.687c63.331-16.8,131.243-15.489,192.129,10.423
	c48.536,20.652,91.143,55.25,119.796,99.225c4.502-0.701,8.94-1.539,13.363-2.499c-12.438-19.883-27.702-37.979-45.257-53.92
	c-56.16-51.011-131.396-77.169-206.996-73.782c-3.841,0.176-7.677,0.423-11.506,0.737c21.721-5.967,43.711-10.967,65.867-15.032
	c12.996-2.289,26.038-4.344,39.115-6.162c59.454,5.063,118.182,11.4,172.794,38.576c34.353,17.092,64.122,41.446,86.085,71.371
	c3.81-1.914,7.615-3.844,11.41-5.822c-22.791-29.783-53.256-54.266-85.466-70.957c-43.009-22.301-92.756-34.759-142.326-37.793
	c19.948-1.653,39.953-2.621,59.968-2.962c0.179,0.07,0.378,0.089,0.585,0.024c0.036-0.013,0.073-0.024,0.109-0.036
	c20.738-0.338,41.488-0.007,62.2,0.938c57.982,2.636,115.722,10.178,172.725,21.042c31.719,6.056,63.23,13.146,94.495,21.092
	c4.619-0.906,9.247-1.647,13.944-2.256c3.943-0.512,7.93-0.93,11.937-1.244c0.006-0.001,0.014-0.001,0.02-0.002
	c0.524-0.041,1.05-0.08,1.576-0.118c0.37-0.025,0.738-0.054,1.108-0.078c-1.126-0.612-2.251-1.223-3.379-1.832
	c-0.213-0.115-0.427-0.231-0.64-0.346c-1.017-0.551-2.035-1.1-3.054-1.647c-0.104-0.057-0.209-0.113-0.314-0.17
	c-102.868-55.342-212.959-101.746-328.533-114.884c-0.21-0.024-0.421-0.048-0.63-0.071c-0.796-0.09-1.593-0.178-2.388-0.264
	c-0.36-0.039-0.723-0.079-1.083-0.117c-0.588-0.063-1.176-0.124-1.763-0.186c-0.555-0.057-1.107-0.114-1.661-0.171
	c-0.335-0.033-0.67-0.066-1.005-0.099c-5.021-0.5-10.051-0.938-15.093-1.31c-1.773-0.122-3.532-0.253-5.291-0.355
	c-1.72-0.112-3.449-0.21-5.184-0.313c-52-2.753-105.325,3.064-156.258,17.209c-2.528,0.704-5.025,1.411-7.52,2.166
	c-1.163,0.344-2.324,0.692-3.485,1.044c-0.02,0.007-0.039,0.013-0.057,0.019c-1.021,0.31-2.039,0.624-3.057,0.94
	c-0.156,0.049-0.312,0.097-0.468,0.145c-0.962,0.301-1.922,0.604-2.881,0.91c-0.186,0.06-0.373,0.119-0.559,0.179
	c-0.897,0.287-1.792,0.578-2.687,0.87c-0.284,0.093-0.568,0.186-0.852,0.279c-0.844,0.277-1.687,0.558-2.529,0.84
	c-0.297,0.1-0.593,0.2-0.891,0.3c-0.836,0.283-1.672,0.566-2.508,0.854c-0.305,0.105-0.611,0.211-0.917,0.316
	c-0.813,0.282-1.628,0.565-2.438,0.852c-0.343,0.121-0.687,0.243-1.03,0.364c-0.781,0.278-1.562,0.556-2.341,0.837
	c-0.375,0.136-0.75,0.272-1.125,0.409c-0.738,0.269-1.478,0.537-2.215,0.811c-0.428,0.157-0.853,0.316-1.28,0.477
	c-0.704,0.262-1.409,0.524-2.112,0.79c-0.442,0.168-0.885,0.337-1.328,0.507c-0.67,0.255-1.34,0.51-2.008,0.77
	c-0.562,0.217-1.122,0.438-1.681,0.656c-0.558,0.218-1.114,0.435-1.671,0.654c-0.624,0.247-1.248,0.498-1.871,0.749
	c-0.509,0.204-1.02,0.405-1.527,0.611c-1.112,0.451-2.221,0.904-3.328,1.363c-0.203,0.083-0.402,0.168-0.603,0.252
	c-0.924,0.384-1.848,0.77-2.769,1.159c-0.331,0.141-0.663,0.284-0.994,0.426c-0.797,0.339-1.593,0.678-2.387,1.022
	c-0.327,0.142-0.652,0.285-0.977,0.427c-0.811,0.354-1.621,0.707-2.429,1.063c-0.291,0.129-0.582,0.261-0.873,0.39
	c-0.833,0.371-1.665,0.743-2.496,1.119c-0.277,0.126-0.555,0.254-0.833,0.38c-0.857,0.39-1.715,0.781-2.569,1.176
	c-0.233,0.108-0.464,0.216-0.697,0.324c-0.896,0.416-1.792,0.834-2.685,1.257c-0.211,0.1-0.421,0.2-0.633,0.3
	c-0.913,0.434-1.822,0.868-2.731,1.307c-0.184,0.089-0.367,0.178-0.55,0.267c-0.962,0.466-1.925,0.936-2.883,1.408
	c-0.12,0.059-0.237,0.117-0.355,0.176c-1.031,0.509-2.058,1.021-3.083,1.539c-0.05,0.025-0.101,0.05-0.152,0.075
	c-8.828,4.453-17.5,9.193-25.99,14.224l-0.02,0.015c-1.076,0.642-2.149,1.287-3.217,1.935c-0.06,0.036-0.118,0.072-0.178,0.107
	c-0.85,0.517-1.698,1.034-2.542,1.555c-2.781,1.712-5.541,3.456-8.28,5.231c-0.22,0.142-0.438,0.283-0.657,0.426
	c-0.59,0.385-1.181,0.771-1.771,1.157c-0.35,0.23-0.698,0.462-1.048,0.693c-0.801,0.531-1.602,1.063-2.399,1.6
	c-0.518,0.35-1.039,0.698-1.555,1.05c-0.39,0.264-0.779,0.53-1.168,0.796c-0.591,0.404-1.181,0.81-1.769,1.216
	c-0.302,0.21-0.606,0.418-0.908,0.629c-0.914,0.634-1.823,1.271-2.731,1.914c-0.004,0.003-0.009,0.007-0.015,0.01
	c-0.941,0.667-1.879,1.337-2.815,2.012c-0.141,0.103-0.284,0.204-0.425,0.307c-38.104,27.521-71.319,61.585-96.994,102.027
	c-0.042,0.065-0.083,0.132-0.124,0.197c-0.624,0.983-1.243,1.97-1.857,2.96c-0.042,0.068-0.085,0.136-0.127,0.204
	c-0.097,0.157-0.196,0.313-0.292,0.469c-15.291,10.245-30.124,21.169-44.399,32.804c44.078-171.756,213.576-279.568,328.355-408.774
	c70.314-79.149,123.473-178.106,151.571-283.076c0.844-0.081,1.722-0.436,2.582-1.142c5.671-4.697,11.459-9.302,17.311-13.77
	c10.45-7.976,21.174-15.6,32.111-22.864c30.591-20.247,63.036-37.666,96.692-52.332c24.735-5.033,51.005-3.056,73.481,9.009
	c25.539,13.7,46.09,36.936,57.228,63.635c3.151,0.438,6.31,0.921,9.471,1.408c-11.464-28.034-32.564-52.697-57.808-67.571
	c-20.79-12.269-42.258-16.13-63.495-14.366c2.03-0.813,4.063-1.62,6.103-2.413c4.937-1.919,9.895-3.78,14.873-5.587
	c63.448-16.306,131.331-14.477,192.006,11.892c48.38,21.027,90.719,55.945,119.035,100.136c4.512-0.667,8.95-1.472,13.389-2.392
	c-12.293-19.98-27.415-38.192-44.848-54.266c-55.771-51.439-130.807-78.168-206.431-75.357c-3.84,0.146-7.676,0.364-11.504,0.65
	c21.767-5.801,43.791-10.633,65.979-14.529c13.012-2.19,26.067-4.145,39.157-5.864c59.415,5.516,118.09,12.298,172.492,39.89
	c34.226,17.35,63.805,41.935,85.539,72.02c3.829-1.881,7.645-3.785,11.454-5.729c-22.563-29.959-52.843-54.67-84.921-71.61
	c-42.837-22.626-92.486-35.46-142.032-38.873c19.959-1.501,39.968-2.317,59.983-2.505c0.178,0.072,0.378,0.092,0.588,0.028
	c0.035-0.011,0.071-0.023,0.107-0.034c20.74-0.18,41.488,0.31,62.191,1.413c57.959,3.074,115.64,11.055,172.561,22.353
	c31.668,6.295,63.128,13.623,94.334,21.813c4.623-0.877,9.256-1.579,13.958-2.153c3.369-0.407,6.771-0.752,10.185-1.02
	c0.028-0.003,0.058-0.005,0.087-0.007c1.133-0.089,2.268-0.169,3.404-0.24l0.975-0.063
	C1999.179,1054.865,1998.095,1054.267,1997.011,1053.669z"/>
<path style="fill:#BBC388;" d="M582.368,893.316c-2.066-3.001-5.773-6.168-8.896-4.297c-2.051,1.232-2.485,3.991-2.47,6.378
	c0.103,18.479,13.472,33.861,20.462,50.967c2.592,6.344,4.336,13.35,2.851,20.039c-1.569,7.084-8.819,16.814-4.512,24.307
	c2.919,5.077,7.981,6.383,12.96,2.753c4.17-3.04,5.798-10.548,9.388-14.694c4.356-5.033,10.583-8.877,11.781-15.966
	c1.686-9.983-8.205-17.515-15.109-24.921C597.008,925.209,592.199,907.581,582.368,893.316z"/>
<path style="fill:#BBC388;" d="M727.201,1204.585c-0.327-8.819,0.107-19.143-6.773-24.673c-7.03-5.651-17.286-2.748-26.266-3.571
	c-19.186-1.764-33.836-21.291-53.096-21.028c-1.88,2.407-0.078,5.857,1.71,8.332c8.341,11.537,16.774,23.172,27.425,32.613
	c8.599,7.62,18.475,13.657,27.479,20.799c11.303,8.971,21.193,19.688,29.252,31.654c4.146,6.153,11.459,27.187,20.818,21.555
	c10.86-6.528-5.857-20.517-9.403-26.738C731.59,1231.693,727.697,1218.212,727.201,1204.585z"/>
<path style="fill:#BBC388;" d="M882.065,1421.091c-3.357-13.296-6.713-26.587-10.071-39.883
	c-1.808-7.157-5.607-15.932-12.989-15.752c-2.373,0.059-4.643,1.141-7.016,1.101c-3.64-0.054-6.675-2.655-9.364-5.106
	c-10.743-9.817-21.486-19.634-32.234-29.451c-6.387-5.837-14.227-12.103-22.69-10.324c2.319,4.429,5.447,8.375,8.556,12.287
	c11.557,14.548,23.138,29.131,36.146,42.398c11.664,11.902,24.638,22.957,32.876,37.446c5.194,9.131,8.352,19.387,14.3,28.044
	c3.547,5.15,6.344,3.289,7.377-1.247C888.023,1435.893,883.264,1425.846,882.065,1421.091z"/>
<path style="fill:#BBC388;" d="M1481.061,291.733c6.621,0.682,13.345,3.576,19.839,0.487c9.141-4.351,9.632-16.77,11.732-26.675
	c3.601-16.95,15.273-31.001,21.315-47.245c1.271-3.415,1.739-8.263-1.589-9.749c-2.183-0.974-4.691,0.254-6.64,1.637
	c-15.074,10.689-19.996,30.465-29.993,46.007c-3.708,5.764-8.438,11.215-14.772,13.836c-6.703,2.778-18.83,2.427-22.494,10.256
	c-2.484,5.306-0.648,10.197,5.179,12.194C1468.524,294.155,1475.604,291.173,1481.061,291.733z"/>
<path style="fill:#BBC388;" d="M1320.179,570.081c11.581,5.146,13.442-16.574,16.497-23.05c5.817-12.321,14.621-23.249,25.49-31.479
	c7.041-5.33,15.742-10.894,16.322-19.703c0.595-9.003-7.669-15.737-12.15-23.561c-9.569-16.721-1.983-39.927-13.253-55.547
	c-3.05-0.156-4.843,3.298-5.842,6.182c-4.657,13.452-9.35,27.031-10.967,41.175c-1.306,11.415-0.58,22.967-1.263,34.441
	c-0.856,14.402-3.96,28.652-9.135,42.119C1323.219,547.586,1310.195,565.648,1320.179,570.081z"/>
<path style="fill:#BBC388;" d="M1301.148,710.705c-2.041-3.012-1.656-6.987-1.188-10.597c1.871-14.436,3.747-28.867,5.617-43.303
	c1.111-8.575,1.744-18.592-4.57-24.507c-2.294,4.444-3.727,9.271-5.149,14.061c-5.286,17.813-10.577,35.668-13.978,53.934
	c-3.051,16.385-4.658,33.354-11.791,48.414c-4.497,9.491-11.089,17.963-14.758,27.805c-2.183,5.856,0.945,7.084,5.252,5.325
	c4.473-1.827,9.964-11.493,13.175-15.206c8.959-10.377,17.914-20.755,26.874-31.137c4.828-5.588,9.832-13.734,5.447-19.674
	C1304.671,713.91,1302.483,712.668,1301.148,710.705z"/>
<path style="fill:#495B23;" d="M1856.597,1022.504c-57.52-10.461-115.756-17.242-174.226-19.132
	c-3.742-0.121-7.485-0.222-11.228-0.3c30.593-12.352,60.862-29.14,85.234-51.193c-3.123-0.838-6.251-1.652-9.413-2.441
	c-26.622,22.231-58.547,36.934-89.304,53.444c-36.46-0.271-72.932,1.494-109.154,5.606c8.615-3.264,16.939-6.996,24.749-10.962
	c22.558-11.455,43.313-27.26,57.943-48.132c3.73-5.334,7.268-11.319,10.453-17.75c0.001-0.001,0.001-0.003,0.002-0.004
	c-1.773-0.136-3.532-0.282-5.291-0.399c-1.715-0.126-3.449-0.239-5.179-0.351c-0.003,0.004-0.005,0.008-0.006,0.012
	c-3.244,5.934-6.954,11.587-11.117,16.88c-15.62,19.946-37.081,35.24-59.835,46.012c-22.581,10.684-46.428,15.504-69.848,23.393
	c-23.368,4.357-46.555,9.722-69.436,16.161c21.977-13.655,40.353-31.994,49.306-57.648c3.112-8.879,4.681-18.814,4.551-28.779v-0.01
	c-2.474,0.668-4.925,1.342-7.366,2.06c-0.103,0.03-0.205,0.059-0.308,0.089c-0.068,10.085-2.251,20.468-6.703,30.802
	c-10.921,25.376-31.629,44.369-55.165,58.085c-24.463,7.461-48.539,16.181-72.07,26.241c-0.554,0.236-1.108,0.477-1.662,0.715
	c5.64-5.388,10.702-11.27,15.041-16.988c8.497-11.201,15.001-24.239,17.032-38.26c0.78-5.324,0.692-10.993-0.228-16.569
	c-0.001-0.002-0.001-0.004-0.001-0.006c-0.95,0.557-1.896,1.117-2.843,1.68c-0.31,0.185-0.621,0.369-0.931,0.554
	c-0.4,0.24-0.802,0.482-1.201,0.723c-0.922,0.555-1.84,1.111-2.753,1.672c0.355,7.064-0.691,14.455-3.176,21.763
	c-4.565,13.369-12.805,24.945-22.49,35.124c-6.733,7.057-14.637,13.236-21.123,20.555c-26.734,12.687-52.611,27.146-77.299,43.416
	c-0.004,0.003-0.009,0.006-0.014,0.009c-14.957,9.855-29.486,20.364-43.496,31.546c18.627-76.872,23.753-156.569,12.314-233.762
	c-2.807-18.933-6.146-38.139-10.121-57.406c17.327-10.084,34.091-21.091,50.281-32.879c0.003-0.003,0.007-0.004,0.009-0.007
	c23.899-17.401,46.526-36.551,67.794-57.127c9.136-3.503,17.695-8.738,26.673-12.567c12.926-5.491,26.66-9.141,40.784-8.727
	c7.712,0.244,15.001,1.857,21.491,4.673c0.506-0.393,1.011-0.79,1.516-1.187c1.85-1.454,3.693-2.933,5.534-4.421
	c-0.004-0.002-0.008-0.003-0.011-0.006c-4.903-2.822-10.176-4.897-15.435-6.03c-13.842-3.021-28.331-1.515-41.803,2.514
	c-6.874,2.053-14.158,4.723-21.181,8.112c0.416-0.434,0.835-0.866,1.249-1.301c17.679-18.498,34.293-37.979,49.868-58.262
	c21.109-17.225,46.165-29.948,73.762-31.258c11.245-0.541,21.729,1.062,31.196,4.535c0.106-0.141,0.211-0.283,0.316-0.425
	c1.482-1.981,2.935-3.978,4.39-6.001c-0.003-0.001-0.007-0.003-0.012-0.004c-9.281-3.622-19.139-5.643-28.538-5.847
	c-27.171-0.625-50.797,10.141-71.3,25.926c14.058-19.157,27.222-38.975,39.502-59.316c15.62-19.165,28.505-39.811,46.448-57.211
	c18.075-17.52,39.932-32.243,64.092-39.869c6.418-2.035,13.016-3.53,19.71-4.48c0.005,0,0.009-0.001,0.013-0.002
	c0.502-1.662,1.004-3.323,1.491-4.97c0.506-1.691,0.988-3.386,1.485-5.096c-0.002,0-0.005,0-0.007,0.001
	c-7.139,0.72-13.988,1.929-20.29,3.551c-24.683,6.368-46.763,20.258-65.413,37.355c-6.454,5.917-12.869,12.398-18.951,19.318
	c16.567-32.468,31.027-65.996,43.57-100.223c26.262-23.003,51.238-47.734,81.402-64.854c0.376-3.24,0.712-6.456,1.023-9.671
	c-29.208,15.077-55.559,37.525-77.87,61.836c1.24-3.535,2.463-7.077,3.663-10.625c18.768-55.41,32.867-112.321,43.27-169.851
	c8.711-48.049,14.869-96.551,19.186-145.194c-0.066,0.15-0.136,0.3-0.202,0.45c-0.107,0.237-0.216,0.475-0.323,0.712
	c-0.122,0.269-0.245,0.537-0.369,0.806c-0.147,0.319-0.295,0.639-0.443,0.959c-0.069,0.148-0.138,0.296-0.207,0.444
	c-1.424,3.038-2.911,6.037-4.442,8.985c-2.188,4.2-4.477,8.293-6.918,12.317c-3.294,32.093-7.474,64.122-12.702,95.98
	c-9.407,57.267-22.192,114.076-39.663,169.428c-6.239,19.771-13.064,39.368-20.517,58.724c-0.024,0.031-0.049,0.062-0.073,0.092
	c-0.135,0.175-0.189,0.372-0.182,0.566c-7.203,18.671-14.992,37.116-23.407,55.274c14.204-47.588,19.623-98.583,13.479-146.637
	c-4.595-35.985-17.102-73.018-37.229-104.657c-3.161,2.884-6.279,5.788-9.393,8.711c20.541,30.914,33.174,67.245,37.403,105.383
	c6.726,60.626-7.525,117.945-23.226,175.515c-0.014,0.047-0.027,0.096-0.039,0.144c-1.435,2.724-2.881,5.443-4.346,8.151
	c-4.785,8.857-9.738,17.625-14.851,26.299c-11.442,19.411-23.703,38.343-36.782,56.69c1.613-3.487,3.165-7.004,4.65-10.551
	c29.189-69.822,30.515-149.461,1.935-219.746c-8.931-21.963-20.673-42.524-35.06-61.043c-2.426,3.825-4.735,7.703-6.947,11.689
	c31.435,42.036,49.267,93.939,51.961,146.621c3.386,66.094-18.761,130.323-56.336,184.015c-3.423,4.007-6.89,7.977-10.402,11.907
	c-1.463,1.635-2.937,3.26-4.416,4.881c9.116-19.271,13.044-40.736,8.854-64.516c-5.063-28.857-20.745-57.276-42.967-77.852
	c-0.658,3.128-1.311,6.256-2.008,9.359c21.087,19.805,35.625,47.206,39.488,75.927c3.402,25.288-3.976,50.583-17.376,71.979
	c-25.549,26.358-53.25,50.617-82.945,72.148c-10.646,7.693-21.549,15.05-32.687,22.037c-4.132,2.59-8.309,5.13-12.513,7.614
	c-13.796-63.124-34.589-126.49-65.901-182.682c-3.696-8.42-7.587-16.752-11.662-24.995c-0.002-0.004-0.004-0.008-0.006-0.013
	c-13.105-26.499-28.151-52.039-44.834-76.481c-1.904-9.599-5.615-18.915-7.866-28.411c-3.23-13.671-4.502-27.825-1.7-41.671
	c1.544-7.562,4.366-14.47,8.238-20.39c-0.685-1.28-1.378-2.56-2.08-3.839c-0.07-0.128-0.141-0.256-0.211-0.384
	c-0.082-0.15-0.166-0.3-0.249-0.45c-0.592-1.076-1.188-2.151-1.79-3.224c-0.002,0.003-0.005,0.006-0.007,0.009
	c-3.612,4.354-6.547,9.198-8.558,14.189c-5.32,13.131-6.286,27.669-4.595,41.628c0.859,7.128,2.262,14.762,4.414,22.259
	c-0.358-0.487-0.716-0.974-1.077-1.459c-15.24-20.557-31.628-40.231-48.983-59.016c-13.401-23.719-21.698-50.563-18.324-77.982
	c1.369-11.172,4.726-21.238,9.754-29.983c-0.157-0.167-0.314-0.331-0.473-0.497c-1.665-1.757-3.354-3.487-5.067-5.228
	c-0.002,0.003-0.004,0.005-0.005,0.008c-5.143,8.539-8.799,17.91-10.597,27.145c-5.211,26.669,1.401,51.773,13.486,74.651
	c-16.502-17.099-33.807-33.425-51.776-48.971c-16.244-18.631-34.408-34.826-48.521-55.454
	c-14.207-20.779-25.023-44.808-28.443-69.914c-0.926-6.673-1.282-13.429-1.081-20.189v-0.006c-0.914-0.46-1.829-0.916-2.742-1.37
	c-0.635-0.316-1.273-0.632-1.906-0.944c-0.88-0.438-1.766-0.868-2.653-1.298c-0.057-0.027-0.115-0.056-0.171-0.083
	c-0.647-0.314-1.295-0.627-1.945-0.944c0,0.001,0,0.003,0,0.005c-0.497,7.161-0.463,14.111,0.068,20.599
	c2.1,25.403,12.049,49.52,25.745,70.792c4.739,7.364,10.041,14.784,15.832,21.949c-29.193-21.822-59.79-41.746-91.401-59.901
	c-18.229-29.775-38.378-58.582-50.15-91.207c-3.128-0.916-6.236-1.793-9.354-2.646c9.917,31.344,27.586,61.112,47.769,87.216
	c-3.276-1.823-6.563-3.628-9.86-5.413c-51.43-27.874-105.135-51.401-160.073-71.392c-45.885-16.715-92.643-30.996-139.854-43.483
	c0.723,0.486,1.44,0.978,2.156,1.472c0.062,0.043,0.124,0.086,0.188,0.129c0.336,0.232,0.672,0.466,1.007,0.701
	c0.251,0.175,0.501,0.351,0.752,0.527c0.124,0.089,0.249,0.176,0.373,0.264c2.265,1.603,4.497,3.24,6.686,4.903
	c3.771,2.87,7.42,5.817,10.967,8.901c31.074,8.678,61.934,18.222,92.448,28.766c54.851,18.962,108.678,41.174,160.272,67.766
	c18.43,9.493,36.587,19.536,54.404,30.155c0.025,0.028,0.051,0.058,0.077,0.086c0.151,0.163,0.337,0.25,0.531,0.277
	c17.185,10.26,34.048,21.061,50.522,32.428c-44.5-22.056-93.846-36.027-142.249-38.103c-36.244-1.564-74.855,4.496-109.447,18.977
	c2.304,3.605,4.643,7.171,6.996,10.733c33.943-15.011,71.888-21.315,110.192-19.025c60.889,3.628,114.976,27.376,169.057,52.593
	c0.047,0.021,0.093,0.043,0.139,0.065c2.44,1.872,4.873,3.755,7.291,5.656c7.919,6.215,15.723,12.581,23.406,19.088
	c17.196,14.562,33.782,29.851,49.653,45.847c-3.164-2.181-6.369-4.306-9.614-6.372C901.266,423.938,823,409.16,748.891,425.429
	c-23.157,5.086-45.407,13.174-66.094,24.224c3.361,3.04,6.792,5.973,10.348,8.823c46.748-23.869,100.92-32.653,153.296-26.397
	c65.716,7.85,125.268,40.543,171.824,86.66c3.372,4.054,6.699,8.144,9.978,12.273c1.363,1.718,2.713,3.444,4.061,5.175
	c-17.449-12.242-37.939-19.747-62.083-19.64c-29.301,0.103-59.96,10.752-84.005,29.169c2.972,1.179,5.944,2.353,8.887,3.566
	c23.088-17.437,52.555-27.123,81.515-26.07c25.501,0.926,49.179,12.478,68,29.307c21.653,29.642,40.873,61.046,57.072,93.957
	c-3.946-2.142-7.9-4.269-11.859-6.385c20.867,37.436,41.099,74.431,56.113,115.228c17.748,48.22,30.553,99.581,35.342,150.826
	c9.267,99.04-0.044,197.106-32.936,291.195c-33.384,95.508-87.976,179.937-157.622,252.965
	c-25.736,26.985-52.855,52.604-79.994,78.19c0.911-15.343,1.207-30.715,0.935-46.074c0-0.005,0-0.009,0-0.015
	c-0.534-29.559-3.231-59.08-7.875-88.306c2.373-9.492,2.998-19.501,5.014-29.048c2.924-13.74,7.82-27.08,16.264-38.407
	c4.623-6.178,10.129-11.221,16.156-14.919c-0.095-1.923-0.208-3.856-0.333-5.792c-0.068-1.065-0.139-2.132-0.213-3.197
	c-0.003,0.001-0.003,0.003-0.006,0.004c-5.123,2.392-9.846,5.523-13.797,9.176c-10.421,9.603-17.5,22.334-21.934,35.679
	c-2.262,6.808-4.256,14.303-5.514,21.997c-0.116-0.588-0.23-1.176-0.347-1.764c-5.002-25.105-11.42-49.902-19.093-74.308
	c-1.987-27.162,1.978-54.97,16.74-78.315c6.007-9.521,13.34-17.19,21.617-22.943c-0.07-0.215-0.141-0.43-0.211-0.645
	c-0.755-2.305-1.544-4.594-2.351-6.896l-0.009,0.005c-8.294,5.523-15.604,12.435-21.17,20.014
	c-16.098,21.886-20.843,47.4-19.691,73.242c-7.617-22.505-16.294-44.655-25.905-66.383c-6.728-23.783-16.235-46.182-20.188-70.854
	c-3.971-24.857-3.488-51.206,4.136-75.366c2.016-6.428,4.583-12.686,7.644-18.71c0.003-0.003,0.004-0.006,0.005-0.009
	c-1.072-1.369-2.144-2.733-3.216-4.078c-1.091-1.388-2.202-2.752-3.318-4.141c-0.001,0.002-0.002,0.005-0.004,0.007
	c-3.506,6.258-6.447,12.56-8.736,18.653c-8.951,23.868-10.251,49.919-6.953,75.006c1.139,8.68,2.762,17.651,4.939,26.601
	c-17.079-32.201-36.236-63.282-57.065-93.198c-3.765-34.707-9.682-69.356-6.393-103.882c-2.436-2.164-4.872-4.288-7.333-6.388
	c-4.414,32.572-1.153,67.033,5.949,99.254c-2.183-3.045-4.381-6.077-6.597-9.096c-34.606-47.172-73.12-91.376-114.255-132.916
	c-34.354-34.708-70.533-67.591-107.893-99.045c0.066,0.11,0.129,0.219,0.193,0.328c0.184,0.311,0.368,0.62,0.549,0.931
	c0.083,0.141,0.167,0.283,0.248,0.424c1.99,3.406,3.887,6.854,5.693,10.316c2.183,4.2,4.219,8.424,6.115,12.731
	c24.39,21.116,48.219,42.928,71.308,65.491c41.496,40.57,80.682,83.645,115.98,129.72c12.609,16.456,24.738,33.293,36.312,50.504
	c0.012,0.037,0.023,0.075,0.034,0.112c0.066,0.209,0.196,0.361,0.356,0.467c11.158,16.618,21.794,33.586,31.837,50.899
	c-30.819-38.944-69.47-72.65-112.349-95.195c-32.102-16.892-69.607-27.902-107.069-29.583c0.545,4.244,1.135,8.467,1.744,12.692
	c37.106,0.926,74.105,11.43,107.761,29.856c53.51,29.28,92.269,73.848,130.399,119.745c0.031,0.039,0.064,0.078,0.097,0.117
	c1.408,2.739,2.805,5.484,4.183,8.24c4.603,9.194,9.034,18.479,13.285,27.844c9.229,20.331,17.609,41.051,25.059,62.098
	c-1.934-3.331-3.931-6.631-5.988-9.893c-40.424-63.976-104.882-110.768-178.84-127.703c-23.113-5.295-46.684-7.479-70.114-6.323
	c1.744,4.18,3.596,8.297,5.588,12.395c52.468-1.617,105.203,13.573,149.89,41.603c56.067,35.16,95.953,90.157,118.359,151.74
	c1.317,5.104,2.578,10.225,3.78,15.358c0.498,2.135,0.984,4.272,1.461,6.413c-10.549-18.521-25.87-34.059-47.751-44.273
	c-26.534-12.42-58.807-15.884-88.409-9.497c2.183,2.329,4.37,4.663,6.509,7.017c28.327-5.905,59.104-2.08,84.843,11.239
	c22.661,11.726,39.137,32.282,48.968,55.533c6.922,36.053,10.889,72.662,11.48,109.339c0.19,13.131-0.044,26.285-0.716,39.416
	c-0.217,4.235-0.485,8.48-0.799,12.72c-13.756-12.762-28.136-24.83-43.036-36.219c-0.002-0.002-0.005-0.004-0.007-0.006
	c-23.492-17.958-48.298-34.197-74.086-48.727c-5.956-7.755-13.406-14.468-19.627-21.98c-8.945-10.826-16.357-22.953-19.976-36.609
	c-1.969-7.459-2.495-14.909-1.647-21.929c-0.782-0.561-1.569-1.117-2.358-1.674c-0.57-0.401-1.14-0.802-1.713-1.201
	c-0.084-0.059-0.168-0.117-0.252-0.176c-1.016-0.705-2.034-1.409-3.057-2.109c0,0.002-0.001,0.006-0.003,0.008
	c-1.308,5.498-1.795,11.147-1.386,16.509c1.043,14.134,6.616,27.596,14.314,39.361c3.929,6.006,8.56,12.228,13.809,17.992
	c-0.534-0.276-1.068-0.554-1.604-0.828c-22.773-11.683-46.185-22.067-70.071-31.223c-22.514-15.328-41.837-35.718-50.952-61.795
	c-3.717-10.621-5.169-21.13-4.531-31.196c-0.057-0.021-0.115-0.042-0.171-0.063c-2.429-0.902-4.866-1.76-7.331-2.617l-0.002,0.012
	c-0.831,9.93,0.042,19.953,2.521,29.026c7.136,26.214,24.178,45.79,45.14,60.947c-22.363-8.02-45.107-14.989-68.1-20.966
	c-22.815-9.511-46.274-15.983-68.061-28.226c-21.938-12.341-42.28-29.096-56.467-50.085c-3.78-5.577-7.093-11.476-9.908-17.622
	c-0.001-0.002-0.001-0.003-0.002-0.005c-0.329-0.002-0.657-0.004-0.985-0.006c-0.5-0.002-1.003-0.005-1.501-0.007
	c-0.905-0.004-1.808-0.007-2.707-0.007c-1.007-0.003-2.016,0.004-3.025,0.012h-0.008c-0.755,0.006-1.512,0.014-2.273,0.018
	c0,0,0.001,0.003,0.002,0.004c2.723,6.639,5.835,12.859,9.182,18.441c13.135,21.847,32.735,39.061,54.436,52.068
	c7.508,4.501,15.547,8.805,23.91,12.662c-35.842-6.634-72.098-10.945-108.478-13.225c-29.529-18.622-60.348-35.523-85.351-59.56
	c-3.211,0.561-6.387,1.155-9.559,1.774c22.771,23.705,51.793,42.568,81.449,57.031c-3.742-0.183-7.485-0.346-11.228-0.486
	c-58.461-2.207-117.028,0.487-175.137,6.895c-48.541,5.334-96.789,13.242-144.648,22.957c0.212,0.028,0.424,0.059,0.636,0.088
	c0.177,0.024,0.355,0.049,0.532,0.074c0.337,0.047,0.673,0.095,1.009,0.143c0.328,0.047,0.656,0.095,0.983,0.144
	c0.194,0.028,0.388,0.059,0.583,0.088c0.429,0.064,0.858,0.13,1.286,0.196c0.081,0.013,0.16,0.025,0.24,0.038
	c0.51,0.081,1.02,0.162,1.528,0.245c0.014,0.003,0.027,0.005,0.041,0.007c1.683,0.276,3.361,0.57,5.031,0.881
	c0.56,0.104,1.12,0.21,1.679,0.318c4.653,0.901,9.228,1.93,13.779,3.123c31.703-5.983,63.595-11.094,95.625-15.157
	c57.573-7.289,115.668-11.211,173.704-10.227c20.729,0.35,41.457,1.313,62.133,2.943c0.036,0.014,0.072,0.029,0.108,0.043
	c0.207,0.08,0.412,0.075,0.596,0.013c19.955,1.589,39.857,3.802,59.665,6.697c-49.666-0.066-100.096,9.263-144.412,28.842
	c-33.188,14.65-65.125,37.185-89.725,65.486c3.663,2.212,7.337,4.375,11.025,6.523c23.786-28.492,55.011-50.947,90.368-65.86
	c56.2-23.716,115.208-26.379,174.862-27.724c0.052-0.001,0.107-0.002,0.16-0.003c3.015,0.598,6.028,1.208,9.037,1.841
	c9.894,2.073,19.752,4.335,29.564,6.778c21.823,5.433,43.421,11.785,64.693,19.083c-3.802-0.553-7.614-1.038-11.436-1.452
	c-75.245-8.098-151.961,13.315-211.196,60.726c-18.514,14.817-34.879,31.927-48.536,50.997c4.36,1.231,8.736,2.343,13.189,3.327
	c31.337-42.104,76.02-73.978,125.753-91.566c62.373-22.06,130.229-19.133,192.383,1.578c4.833,2.149,9.644,4.35,14.429,6.607
	c1.98,0.936,3.955,1.883,5.926,2.837c-21.066-3.247-42.757-0.901-64.358,9.889c-26.216,13.072-48.994,36.194-62.392,63.356
	c3.187-0.263,6.372-0.526,9.549-0.74c12.975-25.856,35.104-47.591,61.535-59.474c23.272-10.465,49.618-10.596,73.941-3.845
	c32.544,16.982,63.688,36.629,92.787,58.963c10.407,8.015,20.565,16.37,30.436,25.062c3.883,3.421,7.726,6.905,11.519,10.438
	c-40.417,38.25-80.23,77.059-114.905,120.866c-60.867,76.916-111.771,172.915-102.134,273.997c1.013,10.616,16.73,11.06,16.867,0
	c0.293-23.398,2.83-45.667,7.289-66.959c1.057,0.082,2.192-0.253,3.294-1.173c5.632-4.74,11.381-9.384,17.203-13.9
	c10.392-8.053,21.052-15.761,31.937-23.107c30.434-20.475,62.736-38.141,96.273-53.062c24.7-5.226,50.989-3.455,73.569,8.442
	c25.637,13.51,46.367,36.584,57.705,63.201c3.157,0.414,6.319,0.872,9.481,1.335c-11.674-27.947-32.965-52.448-58.319-67.128
	c-20.883-12.111-42.385-15.81-63.609-13.886c2.025-0.829,4.055-1.651,6.089-2.461c4.91-1.951,9.843-3.845,14.794-5.687
	c63.331-16.8,131.243-15.489,192.129,10.423c48.536,20.652,91.143,55.25,119.796,99.225c4.502-0.701,8.94-1.539,13.363-2.499
	c-12.438-19.883-27.702-37.979-45.257-53.92c-56.16-51.011-131.396-77.169-206.996-73.782c-3.841,0.176-7.677,0.423-11.506,0.737
	c21.721-5.967,43.711-10.967,65.867-15.032c9.909-1.818,19.852-3.454,29.818-4.901c3.045-0.443,6.092-0.866,9.141-1.274
	c0.052,0.005,0.103,0.009,0.156,0.014c59.454,5.063,118.182,11.4,172.794,38.576c34.353,17.092,64.122,41.446,86.085,71.371
	c3.81-1.914,7.615-3.844,11.41-5.822c-22.791-29.783-53.256-54.266-85.466-70.957c-43.009-22.301-92.756-34.759-142.326-37.793
	c19.948-1.653,39.953-2.621,59.968-2.962c0.179,0.07,0.378,0.089,0.585,0.024c0.036-0.013,0.073-0.024,0.109-0.036
	c20.738-0.338,41.488-0.007,62.2,0.938c57.982,2.636,115.722,10.178,172.725,21.042c31.719,6.056,63.23,13.146,94.495,21.092
	c4.619-0.906,9.247-1.647,13.944-2.256c3.943-0.512,7.93-0.93,11.937-1.244c0.006-0.001,0.014-0.001,0.02-0.002
	c0.524-0.041,1.05-0.08,1.576-0.118c0.045-0.003,0.09-0.007,0.134-0.01c-47.162-12.682-94.821-23.581-142.938-31.937
	c-57.594-10.022-115.884-16.36-174.363-17.803c-3.744-0.093-7.488-0.164-11.233-0.216c30.501-12.584,60.641-29.603,84.846-51.843
	c-3.132-0.813-6.265-1.603-9.432-2.367c-26.453,22.435-58.269,37.38-88.902,54.124c-36.457,0.005-72.915,2.048-109.101,6.435
	c8.59-3.33,16.885-7.124,24.663-11.151c22.471-11.63,43.108-27.586,57.579-48.57c3.687-5.361,7.178-11.371,10.31-17.827
	c0.002-0.004,0.003-0.007,0.004-0.009c-1.773-0.122-3.532-0.253-5.291-0.355c-1.72-0.112-3.449-0.21-5.184-0.313l-0.007,0.013
	c-3.194,5.958-6.865,11.636-10.985,16.962c-15.469,20.068-36.813,35.522-59.478,46.466c-22.505,10.861-46.313,15.858-69.672,23.924
	c-23.329,4.533-46.47,10.073-69.298,16.684c21.867-13.821,40.098-32.297,48.855-58.016c3.039-8.897,4.535-18.847,4.326-28.812
	v-0.012c-2.528,0.704-5.025,1.411-7.52,2.166c-0.045,0.014-0.09,0.027-0.134,0.041c0.009,10.085-2.095,20.481-6.47,30.854
	c-10.725,25.454-31.284,44.601-54.711,58.496c-24.409,7.646-48.422,16.551-71.88,26.79c-0.551,0.24-1.099,0.482-1.649,0.725
	c5.596-5.425,10.61-11.346,14.906-17.095c8.414-11.265,14.816-24.352,16.741-38.387c0.74-5.333,0.609-10.996-0.354-16.568
	c0-0.002-0.001-0.005-0.001-0.007c-1.076,0.642-2.149,1.287-3.217,1.935c-0.06,0.036-0.118,0.072-0.178,0.107
	c-0.85,0.517-1.698,1.034-2.542,1.555c-0.587,0.362-1.173,0.726-1.756,1.09c0.414,7.064-0.58,14.461-3.006,21.783
	c-4.468,13.403-12.619,25.048-22.226,35.299c-6.677,7.106-14.531,13.342-20.961,20.712c-26.641,12.893-52.409,27.553-76.974,44.008
	l-0.009,0.006c-15.291,10.245-30.124,21.169-44.399,32.804c44.078-171.756,213.576-279.568,328.355-408.774
	c70.314-79.149,123.473-178.106,151.571-283.076c0.844-0.081,1.722-0.436,2.582-1.142c5.671-4.697,11.459-9.302,17.311-13.77
	c10.45-7.976,21.174-15.6,32.111-22.864c30.591-20.247,63.036-37.666,96.692-52.332c24.735-5.033,51.005-3.056,73.481,9.009
	c25.539,13.7,46.09,36.936,57.228,63.635c3.151,0.438,6.31,0.921,9.471,1.408c-11.464-28.034-32.564-52.697-57.808-67.571
	c-20.79-12.269-42.258-16.13-63.495-14.366c2.03-0.813,4.063-1.62,6.103-2.413c4.937-1.919,9.895-3.78,14.873-5.587
	c63.448-16.306,131.331-14.477,192.006,11.892c48.38,21.027,90.719,55.945,119.035,100.136c4.512-0.667,8.95-1.472,13.389-2.392
	c-12.293-19.98-27.415-38.192-44.848-54.266c-55.771-51.439-130.807-78.168-206.431-75.357c-3.84,0.146-7.676,0.364-11.504,0.65
	c21.767-5.801,43.791-10.633,65.979-14.529c9.922-1.742,19.874-3.302,29.851-4.674c3.049-0.42,6.101-0.819,9.153-1.205
	c0.051,0.005,0.102,0.01,0.153,0.015c59.415,5.516,118.09,12.298,172.492,39.89c34.226,17.35,63.805,41.935,85.539,72.02
	c3.829-1.881,7.645-3.785,11.454-5.729c-22.563-29.959-52.843-54.67-84.921-71.61c-42.837-22.626-92.486-35.46-142.032-38.873
	c19.959-1.501,39.968-2.317,59.983-2.505c0.178,0.072,0.378,0.092,0.588,0.028c0.035-0.011,0.071-0.023,0.107-0.034
	c20.74-0.18,41.488,0.31,62.191,1.413c57.959,3.074,115.64,11.055,172.561,22.353c31.668,6.295,63.128,13.623,94.334,21.813
	c4.623-0.877,9.256-1.579,13.958-2.153c3.369-0.407,6.771-0.752,10.185-1.02c0.028-0.003,0.058-0.005,0.087-0.007
	c1.133-0.089,2.268-0.169,3.404-0.24c0,0-0.003-0.001-0.005-0.001C1952.219,1042.484,1904.645,1031.225,1856.597,1022.504z"/>
<path style="fill:#BBC388;" d="M1851.925,1060.619c-10.012-1.506-21.812-5.408-29.096,1.622c-5.175,4.994-4.824,12.308-6.51,18.743
	c-1.394,5.306-6.67,10.894-6.821,16.054c-0.18,6.158,3.762,9.593,9.604,9.13c8.608-0.682,12.541-12.16,17.496-17.461
	c4.682-5.009,11.443-7.527,18.144-8.975c18.065-3.897,38.304-1.564,53.607-11.922c1.979-1.34,4.01-3.26,3.868-5.643
	c-0.224-3.639-4.931-4.906-8.574-4.916C1886.317,1057.204,1869.055,1063.206,1851.925,1060.619z"/>
<path style="fill:#BBC388;" d="M1606.979,1124.999c-5.759-6.942-9.159-17.042-17.797-19.649c-8.448-2.548-16.722,3.645-24.181,8.36
	c-11.522,7.289-24.843,11.698-38.427,12.813c-7.133,0.59-28.121-5.291-27.371,7.358c0.644,10.903,22.124,5.052,29.55,4.988
	c14.421-0.111,28.856,1.983,42.646,6.242c10.981,3.391,21.539,8.126,32.691,10.913c13.808,3.449,28.17,3.829,42.402,4.19
	c3.055,0.072,6.913-0.386,7.839-3.299C1643.667,1140.877,1619.272,1139.829,1606.979,1124.999z"/>
<path style="fill:#BBC388;" d="M1412.871,1117.097c-14.174-3.313-28.341-6.631-42.515-9.944c-3.542-0.828-7.405-1.866-9.505-4.833
	c-1.374-1.939-1.765-4.424-3.06-6.417c-4.02-6.192-13.403-4.365-20.332-1.808c-12.867,4.746-25.729,9.486-38.592,14.231
	c-4.604,1.701-15.581,3.45-18.864,6.997c-3.157,3.415-3.109,6.771,3.138,6.786c10.509,0.02,20.755-3.177,31.22-4.053
	c16.609-1.394,33.063,3.059,49.472,5.958c18.3,3.23,36.872,4.546,55.405,5.852c4.989,0.355,10.012,0.706,14.977,0.117
	C1430.897,1121.992,1421.295,1119.069,1412.871,1117.097z"/>
<path style="fill:#BBC388;" d="M270.796,1402.475c-6.772-7.522-18.816-4.458-28.911-3.654c-17.271,1.379-34.071-5.813-51.356-6.977
	c-3.635-0.243-8.419,0.688-8.892,4.302c-0.312,2.368,1.579,4.424,3.46,5.9c14.543,11.406,34.893,10.49,52.643,15.645
	c6.583,1.914,13.155,4.901,17.472,10.222c4.57,5.637,7.688,17.359,16.234,18.646c5.793,0.867,9.963-2.285,10.217-8.438
	c0.21-5.16-4.663-11.099-5.681-16.492C274.748,1415.089,275.61,1407.819,270.796,1402.475z"/>
<path style="fill:#BBC388;" d="M561.827,1487.332c-13.471-2.07-26.45-7.396-37.432-15.474c-7.113-5.228-14.928-11.985-23.542-10.032
	c-8.794,1.993-12.896,11.835-19.123,18.358c-13.301,13.93-37.71,13.267-49.471,28.521c0.716,2.972,4.541,3.702,7.59,3.839
	c14.217,0.634,28.575,1.262,42.592-1.213c11.318-1.997,22.183-5.988,33.374-8.599c14.051-3.279,28.594-4.361,42.977-3.241
	c7.4,0.581,28.419,7.918,29.827-2.913C590.25,1484.02,568.906,1488.413,561.827,1487.332z"/>
<path style="fill:#BBC388;" d="M752.75,1468.209c-6.733-3.035-15.966-5.515-20.41,0.385c-1.432,1.896-1.997,4.347-3.498,6.183
	c-2.304,2.816-6.232,3.576-9.822,4.156c-14.368,2.314-28.74,4.634-43.108,6.947c-8.541,1.374-18.324,3.62-22.192,11.357
	c4.911,0.94,9.949,0.94,14.947,0.936c18.578-0.011,37.198-0.02,55.678-1.959c16.575-1.744,33.301-5.037,49.769-2.484
	c10.382,1.607,20.375,5.511,30.859,6.227c6.236,0.424,6.514-2.924,3.606-6.549c-3.026-3.766-13.856-6.284-18.329-8.297
	C777.753,1479.473,765.251,1473.841,752.75,1468.209z"/>
<path style="fill:#BBC388;" d="M603.995,277.443c-16.098-6.417-27.971-20.302-42.957-29.003c-3.152-1.832-7.854-3.113-9.881-0.083
	c-1.325,1.988-0.541,4.667,0.492,6.821c7.985,16.667,26.641,24.862,40.268,37.344c5.057,4.629,9.623,10.217,11.138,16.901
	c1.603,7.074-0.794,18.972,6.299,23.907c4.809,3.348,9.944,2.363,12.896-3.044c2.47-4.531,0.736-12.015,2.212-17.296
	c1.788-6.412,5.778-12.546,3.834-19.469C625.554,283.772,613.398,281.19,603.995,277.443z"/>
<path style="fill:#BBC388;" d="M851.644,498.496c-11.162-7.82-20.443-18.344-26.714-30.451c-4.058-7.839-8.073-17.359-16.657-19.42
	c-8.77-2.105-16.804,4.896-25.276,7.991c-18.101,6.602-39.689-4.804-56.989,3.663c-0.673,2.977,2.431,5.326,5.106,6.802
	c12.468,6.865,25.063,13.788,38.724,17.773c11.03,3.221,22.538,4.458,33.729,7.074c14.051,3.279,27.572,8.755,39.971,16.132
	c6.378,3.795,21.968,19.683,28.029,10.597C878.596,508.118,857.504,502.603,851.644,498.496z"/>
<path style="fill:#BBC388;" d="M1057.427,597.672c-8.717-10.587-17.428-21.169-26.139-31.756
	c-4.692-5.706-11.873-12.015-18.47-8.697c-2.119,1.062-3.712,3.011-5.875,3.99c-3.313,1.506-7.167,0.453-10.646-0.619
	c-13.91-4.288-27.82-8.58-41.725-12.867c-8.268-2.548-18.032-4.867-24.931,0.356c3.99,3.016,8.507,5.247,12.989,7.459
	c16.663,8.22,33.36,16.458,50.787,22.898c15.634,5.784,32.088,10.237,45.72,19.82c8.599,6.037,15.829,13.963,24.911,19.25
	c5.403,3.143,7.138,0.263,6.134-4.278C1069.14,608.513,1060.545,601.463,1057.427,597.672z"/>
<path style="fill:#BBC388;" d="M1368.422,1762.284c-10.021-1.433-21.851-5.247-29.081,1.842c-5.136,5.033-4.73,12.341-6.373,18.791
	c-1.349,5.315-6.582,10.943-6.694,16.103c-0.131,6.163,3.83,9.569,9.672,9.063c8.604-0.75,12.448-12.259,17.363-17.599
	c4.644-5.042,11.387-7.61,18.076-9.11c18.031-4.039,38.29-1.856,53.515-12.331c1.969-1.354,3.985-3.289,3.825-5.672
	c-0.249-3.634-4.965-4.866-8.609-4.847C1402.785,1758.605,1385.572,1764.735,1368.422,1762.284z"/>
<path style="fill:#BBC388;" d="M1123.97,1828.525c-5.808-6.899-9.286-16.975-17.939-19.513c-8.473-2.489-16.691,3.767-24.122,8.546
	c-11.463,7.371-24.75,11.883-38.323,13.105c-7.133,0.639-28.166-5.081-27.318,7.562c0.731,10.898,22.168,4.882,29.588,4.765
	c14.421-0.224,28.872,1.764,42.689,5.915c11.006,3.309,21.603,7.961,32.774,10.665c13.832,3.348,28.2,3.615,42.431,3.863
	c3.055,0.054,6.914-0.434,7.815-3.352C1160.778,1844.121,1136.379,1843.264,1123.97,1828.525z"/>
<path style="fill:#BBC388;" d="M929.811,1822.099c-14.197-3.205-28.394-6.416-42.592-9.622c-3.547-0.799-7.415-1.808-9.539-4.76
	c-1.388-1.93-1.798-4.41-3.108-6.393c-4.068-6.158-13.437-4.263-20.346-1.651c-12.828,4.838-25.656,9.681-38.485,14.523
	c-4.589,1.734-15.551,3.571-18.806,7.138c-3.132,3.439-3.06,6.802,3.192,6.763c10.504-0.059,20.726-3.333,31.186-4.288
	c16.595-1.52,33.082,2.807,49.515,5.584c18.324,3.089,36.907,4.263,55.45,5.427c4.989,0.317,10.012,0.629,14.972,0
	C947.873,1826.858,938.25,1824.004,929.811,1822.099z"/>
</svg>
